<svg width="188" height="180" viewBox="0 0 188 180" fill="none" xmlns="http://www.w3.org/2000/svg">
<circle cx="94" cy="85" r="85" fill="white"/>
<g clip-path="url(#clip0_2223_13591)">
<path d="M112.371 79.6107L119.256 74.8801C119.686 74.5846 120.22 74.5764 120.716 74.7406C122.179 75.2194 122.097 76.2071 122.165 76.7215C122.317 77.8104 122.57 78.9787 123 79.597C124.177 81.2934 125.973 81.4876 127.775 80.8118C128.764 80.4425 129.651 79.8351 130.351 79.0498C131.627 77.6134 132.082 75.8788 130.902 74.1852C130.472 73.5641 129.464 72.9129 128.491 72.3876C128.034 72.1414 127.075 71.8678 127.141 70.3383C127.163 69.8212 127.362 69.326 127.789 69.0332L135.093 64.0318L121.493 44.4446C120.942 43.6538 120.099 43.1094 119.146 42.937C118.192 42.7646 117.212 42.9726 116.413 43.5198L96.6797 57.044L101.716 64.2972C102.011 64.724 102.51 64.9182 103.03 64.9401C104.571 65.0058 104.846 64.0564 105.094 63.5995C105.623 62.6337 106.279 61.635 106.904 61.2055C108.61 60.0344 110.357 60.4859 111.803 61.7527C112.594 62.4449 113.206 63.3286 113.577 64.3108C114.258 66.1002 114.06 67.8841 112.354 69.0524C111.731 69.4792 110.552 69.7337 109.458 69.8814C108.94 69.9498 107.949 69.8677 107.464 71.3205C107.298 71.8158 107.307 72.3438 107.604 72.7706L112.368 79.608L112.371 79.6107Z" stroke="#9E0C1B" stroke-width="2" stroke-linecap="round" stroke-linejoin="round"/>
<path d="M137.217 87.9971L127.615 86.3691" stroke="#9E0C1B" stroke-width="2" stroke-linecap="round" stroke-linejoin="round"/>
<path d="M124.805 91.3398L131.412 98.8995" stroke="#9E0C1B" stroke-width="2" stroke-linecap="round" stroke-linejoin="round"/>
<path d="M80.0381 49.8047L88.2294 55.0387" stroke="#9E0C1B" stroke-width="2" stroke-linecap="round" stroke-linejoin="round"/>
<path d="M92.9299 51.2985L89.833 41.7744" stroke="#9E0C1B" stroke-width="2" stroke-linecap="round" stroke-linejoin="round"/>
<path d="M62.8154 89.8165L62.843 66.0186C62.843 65.0582 63.2287 64.1389 63.9148 63.4604C64.5981 62.7819 65.5266 62.4043 66.4936 62.4043L90.4117 62.4426L90.3952 71.2362C90.3952 71.7533 90.69 72.1938 91.106 72.5057C92.3321 73.4277 93.1036 72.8039 93.5664 72.5686C94.5528 72.0761 95.6632 71.6247 96.4209 71.6247C98.49 71.6247 99.6665 72.9818 100.129 74.8368C100.383 75.8519 100.38 76.9217 100.124 77.9367C99.6582 79.789 98.4762 81.1406 96.4071 81.1379C95.6521 81.1379 94.539 80.681 93.5554 80.1857C93.0925 79.9504 92.3238 79.3239 91.095 80.2432C90.6762 80.5551 90.3814 80.9929 90.3814 81.5127V89.8111" stroke="black" stroke-width="2" stroke-linecap="round" stroke-linejoin="round"/>
<path d="M90.379 117.185L66.4141 117.158C65.447 117.158 64.5212 116.775 63.8379 116.094C63.1546 115.415 62.7744 114.493 62.7744 113.533L62.813 89.7814L71.6683 89.7978C72.189 89.7978 72.6326 89.5051 72.9467 89.0919C73.8752 87.8744 73.247 87.1083 73.0101 86.6486C72.5141 85.6691 72.0595 84.5665 72.0595 83.8141C72.0595 81.7594 73.4261 80.5911 75.2941 80.1314C76.3163 79.8797 77.3936 79.8824 78.4158 80.1369C80.2811 80.5993 81.6422 81.773 81.6394 83.8278C81.6394 84.5775 81.1793 85.6828 80.6806 86.6596C80.4436 87.1192 79.8127 87.8826 80.7385 89.1029C81.0525 89.5187 81.4934 89.8115 82.0169 89.8115H90.3735" stroke="black" stroke-width="2" stroke-linecap="round" stroke-linejoin="round"/>
<path d="M90.3786 89.8164H98.7352C99.2587 89.8164 99.6995 90.1119 100.014 90.5278C100.939 91.7453 100.308 92.5114 100.071 92.971C99.5728 93.9505 99.1126 95.0532 99.1126 95.8028C99.1099 97.8576 100.471 99.0313 102.336 99.4937C103.361 99.7482 104.436 99.7509 105.458 99.4992C107.326 99.0396 108.69 97.874 108.693 95.8165C108.693 95.0641 108.241 93.9615 107.745 92.9793C107.511 92.5196 106.882 91.7535 107.811 90.536C108.125 90.1228 108.569 89.8301 109.089 89.8301L117.942 89.8465L117.914 113.612C117.914 114.572 117.529 115.491 116.842 116.17C116.159 116.848 115.231 117.229 114.264 117.226L90.3455 117.188L90.362 108.394C90.362 107.877 90.0672 107.436 89.6512 107.125C88.4251 106.202 87.6537 106.826 87.1908 107.062C86.2044 107.554 85.0941 108.006 84.3364 108.006C82.2672 108.006 81.0907 106.648 80.6279 104.793C80.3744 103.778 80.3771 102.709 80.6334 101.693C81.099 99.8412 82.281 98.4896 84.3502 98.4923C85.1051 98.4923 86.2182 98.9493 87.2018 99.4445C87.6647 99.6798 88.4334 100.306 89.6622 99.387C90.081 99.0751 90.3758 98.6374 90.3758 98.1175V89.8191" stroke="black" stroke-width="2" stroke-linecap="round" stroke-linejoin="round"/>
</g>
<path d="M187.5 85C187.5 136.915 145.639 179 94 179C42.3614 179 0.5 136.915 0.5 85" stroke="url(#paint0_linear_2223_13591)" stroke-dasharray="2 2"/>
<defs>
<linearGradient id="paint0_linear_2223_13591" x1="94" y1="85" x2="94" y2="179" gradientUnits="userSpaceOnUse">
<stop stop-color="#9E0C1B" stop-opacity="0"/>
<stop offset="1" stop-color="#9E0C1B"/>
</linearGradient>
<clipPath id="clip0_2223_13591">
<rect width="76" height="77" fill="white" transform="translate(61.9971 41)"/>
</clipPath>
</defs>
</svg>
