<svg width="188" height="180" viewBox="0 0 188 180" fill="none" xmlns="http://www.w3.org/2000/svg">
<circle cx="94" cy="85" r="85" fill="white"/>
<g clip-path="url(#clip0_2223_13561)">
<path d="M71.7022 115.429H62.7378C57.9734 115.429 54.0351 111.699 53.757 106.925L52.7793 90.1621" stroke="black" stroke-width="2" stroke-linecap="round" stroke-linejoin="round"/>
<path d="M64.0156 115.429V124.358" stroke="black" stroke-width="2" stroke-linecap="round" stroke-linejoin="round"/>
<path d="M69.3533 124.8H58.6787" stroke="black" stroke-width="2" stroke-linecap="round" stroke-linejoin="round"/>
<path d="M82.991 107.578C82.4677 105.475 80.6115 104.001 78.4799 104.001H71.0385L71.862 93.0322L76.9184 96.5346H84.0485C85.5026 96.5346 86.6813 95.3349 86.6813 93.8532C86.6813 92.3715 85.5026 91.1717 84.0485 91.1717H78.7746L71.3029 86.0493C70.3913 85.5434 68.8573 85.5766 68.648 85.5766H65.1477C62.4928 85.5766 60.2841 87.6582 60.0803 90.3562L58.885 106.133C58.7529 107.866 59.5653 109.574 61.0993 110.511C61.8236 110.954 62.6636 111.158 63.509 111.158H76.3262L79.1711 122.362C79.6366 124.198 81.3165 125.428 83.1617 125.19C85.2988 124.914 86.7667 122.805 86.2379 120.679L82.9855 107.581" stroke="black" stroke-width="2" stroke-linejoin="round"/>
<path d="M68.7419 81.7559C72.0927 81.7559 74.809 78.9885 74.809 75.5747C74.809 72.161 72.0927 69.3936 68.7419 69.3936C65.3911 69.3936 62.6748 72.161 62.6748 75.5747C62.6748 78.9885 65.3911 81.7559 68.7419 81.7559Z" stroke="black" stroke-width="2" stroke-linecap="round" stroke-linejoin="round"/>
<path d="M117.298 115.429H126.262C131.027 115.429 134.965 111.699 135.243 106.925L136.221 90.1621" stroke="black" stroke-width="2" stroke-linecap="round" stroke-linejoin="round"/>
<path d="M124.984 115.429V124.358" stroke="black" stroke-width="2" stroke-linecap="round" stroke-linejoin="round"/>
<path d="M119.647 124.8H130.322" stroke="black" stroke-width="2" stroke-linecap="round" stroke-linejoin="round"/>
<path d="M105.832 125.188C103.695 124.911 102.227 122.802 102.756 120.676L106.009 107.578C106.532 105.475 108.388 104.001 110.52 104.001H117.961L117.138 93.0322L112.081 96.5346H104.951C103.497 96.5346 102.318 95.3349 102.318 93.8532C102.318 92.3715 103.497 91.1717 104.951 91.1717H110.225L117.697 86.0493C118.608 85.5434 120.142 85.5766 120.352 85.5766H123.852C126.507 85.5766 128.716 87.6582 128.919 90.3562L130.115 106.133C130.247 107.866 129.434 109.574 127.9 110.511C127.176 110.954 126.336 111.158 125.491 111.158H112.673L109.829 122.362C109.363 124.198 107.683 125.428 105.838 125.19L105.832 125.188Z" stroke="black" stroke-width="2" stroke-linejoin="round"/>
<path d="M120.259 81.7559C123.609 81.7559 126.326 78.9885 126.326 75.5747C126.326 72.161 123.609 69.3936 120.259 69.3936C116.908 69.3936 114.191 72.161 114.191 75.5747C114.191 78.9885 116.908 81.7559 120.259 81.7559Z" stroke="black" stroke-width="2" stroke-linecap="round" stroke-linejoin="round"/>
<path d="M83.2852 100.756H105.714" stroke="black" stroke-width="2" stroke-linecap="round" stroke-linejoin="round"/>
<path d="M94.5 100.756V125.218" stroke="black" stroke-width="2" stroke-linecap="round" stroke-linejoin="round"/>
<path d="M95.3494 47.4692L96.2555 44.7822L101.587 45.9294L101.317 48.7547L105.068 51.3559L107.599 50.1009L110.563 54.7036L108.384 56.5088L109.205 61.0147L111.879 61.9242L110.733 67.2871L107.924 67.0162L105.335 70.7868L106.583 73.3328L102.003 76.3101L100.207 74.1234L95.7239 74.95L94.8179 77.637L89.4833 76.487L89.7532 73.6645L86.0023 71.0633L83.4713 72.3183L80.5108 67.7156L82.6892 65.9104L81.8657 61.4017L79.1943 60.4922L80.34 55.1321L83.1491 55.403L85.7379 51.6296L84.4903 49.0864L89.0702 46.1091L90.8659 48.2958L95.3494 47.4692Z" stroke="#9E0C1B" stroke-width="2" stroke-linecap="round" stroke-linejoin="round"/>
<path d="M98.1228 53.5068C97.3104 53.2303 96.4429 53.0811 95.5368 53.0811C91.0698 53.0811 87.4482 56.719 87.4482 61.2111C87.4482 65.4157 90.6264 68.874 94.6968 69.2942C94.9722 69.3218 95.2504 69.3384 95.534 69.3384C95.6139 69.3384 95.6938 69.3384 95.7709 69.3357C95.7984 69.3357 95.8232 69.3356 95.8508 69.3329C96.1923 69.3191 96.5282 69.2859 96.856 69.2306C100.692 68.5948 103.62 65.2471 103.62 61.2139C103.62 60.8324 103.592 60.4592 103.543 60.0915" stroke="#9E0C1B" stroke-width="2" stroke-linecap="round" stroke-linejoin="round"/>
<path d="M92.1875 61.2772L95.5144 64.752L101.791 56.1797" stroke="#9E0C1B" stroke-width="2" stroke-linecap="round" stroke-linejoin="round"/>
</g>
<path d="M187.5 85C187.5 136.915 145.639 179 94 179C42.3614 179 0.5 136.915 0.5 85" stroke="url(#paint0_linear_2223_13561)" stroke-dasharray="2 2"/>
<defs>
<linearGradient id="paint0_linear_2223_13561" x1="94" y1="85" x2="94" y2="179" gradientUnits="userSpaceOnUse">
<stop stop-color="#9E0C1B" stop-opacity="0"/>
<stop offset="1" stop-color="#9E0C1B"/>
</linearGradient>
<clipPath id="clip0_2223_13561">
<rect width="85" height="82" fill="white" transform="translate(52 44)"/>
</clipPath>
</defs>
</svg>
