<svg width="188" height="180" viewBox="0 0 188 180" fill="none" xmlns="http://www.w3.org/2000/svg">
<circle cx="94" cy="85" r="85" fill="white"/>
<g clip-path="url(#clip0_2223_13510)">
<path d="M81.135 97.0591L78.7495 94.6743C74.3391 90.2832 73.3128 84.0765 77.6205 79.5832C81.9283 75.0898 88.9406 75.0871 93.2289 79.597C93.2927 79.6633 93.3704 79.7435 93.4342 79.8125C93.5562 79.9424 93.6783 80.0695 93.8003 80.1967C93.8725 80.2713 93.9446 80.3459 94.0167 80.4205C95.8114 82.2913 97.9694 84.5076 100.064 86.6659C101.281 87.9205 101.251 89.9212 99.9943 91.1371C98.735 92.3558 96.7212 92.3309 95.4979 91.0763L88.666 84.0903" stroke="#9E0C1B" stroke-width="2" stroke-miterlimit="10" stroke-linecap="round"/>
<path d="M96.2438 78.3315C100.552 75.1508 106.563 75.5598 110.415 79.5806C114.723 84.0767 113.591 90.1811 109.286 94.6745L94.0137 109.882" stroke="#9E0C1B" stroke-width="2" stroke-linecap="round" stroke-linejoin="round"/>
<path d="M97.4335 100.066L90.793 106.677" stroke="#9E0C1B" stroke-width="2" stroke-linecap="round" stroke-linejoin="round"/>
<path d="M94.2166 96.8604L87.5732 103.47" stroke="#9E0C1B" stroke-width="2" stroke-linecap="round" stroke-linejoin="round"/>
<path d="M90.9959 93.6523L84.3525 100.265" stroke="#9E0C1B" stroke-width="2" stroke-linecap="round" stroke-linejoin="round"/>
<path d="M87.7781 90.4463L81.1348 97.0619" stroke="#9E0C1B" stroke-width="2" stroke-linecap="round" stroke-linejoin="round"/>
<path d="M94.0003 54.2066C97.3767 54.2066 100.114 51.4253 100.114 47.9944C100.114 44.5635 97.3767 41.7822 94.0003 41.7822C90.6238 41.7822 87.8867 44.5635 87.8867 47.9944C87.8867 51.4253 90.6238 54.2066 94.0003 54.2066Z" stroke="black" stroke-width="2" stroke-linecap="round" stroke-linejoin="round"/>
<path d="M81.6514 69.7587C81.6514 67.0975 81.6514 68.0564 81.6514 65.3953C81.6514 62.2201 83.8704 59.5091 86.9383 58.9205C91.6039 58.0252 96.3943 58.0252 101.06 58.9205C104.125 59.5064 106.35 62.2256 106.35 65.3953V69.7615" stroke="black" stroke-width="2" stroke-linecap="round" stroke-linejoin="round"/>
<path d="M87.0881 69.7588L87.0742 66.7715" stroke="black" stroke-width="2" stroke-linecap="round" stroke-linejoin="round"/>
<path d="M100.926 66.7715L100.912 69.7588" stroke="black" stroke-width="2" stroke-linecap="round" stroke-linejoin="round"/>
<path d="M64.2642 100.649C67.6759 100.649 70.4416 97.8677 70.4416 94.4368C70.4416 91.0059 67.6759 88.2246 64.2642 88.2246C60.8526 88.2246 58.0869 91.0059 58.0869 94.4368C58.0869 97.8677 60.8526 100.649 64.2642 100.649Z" stroke="black" stroke-width="2" stroke-linecap="round" stroke-linejoin="round"/>
<path d="M51.7852 116.196C51.7852 113.534 51.7852 114.496 51.7852 111.835C51.7852 108.66 54.0264 105.952 57.1303 105.363C61.8459 104.468 66.6862 104.468 71.4017 105.363C74.4973 105.949 76.7469 108.668 76.7469 111.835V116.198" stroke="black" stroke-width="2" stroke-linecap="round" stroke-linejoin="round"/>
<path d="M57.2795 116.195L57.2656 113.208" stroke="black" stroke-width="2" stroke-linecap="round" stroke-linejoin="round"/>
<path d="M71.2658 113.208L71.252 116.195" stroke="black" stroke-width="2" stroke-linecap="round" stroke-linejoin="round"/>
<path d="M123.736 100.649C127.148 100.649 129.913 97.8677 129.913 94.4368C129.913 91.0059 127.148 88.2246 123.736 88.2246C120.324 88.2246 117.559 91.0059 117.559 94.4368C117.559 97.8677 120.324 100.649 123.736 100.649Z" stroke="black" stroke-width="2" stroke-linecap="round" stroke-linejoin="round"/>
<path d="M136.218 116.196C136.218 113.534 136.218 114.496 136.218 111.835C136.218 108.66 133.976 105.952 130.872 105.363C126.157 104.468 121.317 104.468 116.601 105.363C113.505 105.949 111.256 108.668 111.256 111.835V116.198" stroke="black" stroke-width="2" stroke-linecap="round" stroke-linejoin="round"/>
<path d="M130.723 116.195L130.737 113.208" stroke="black" stroke-width="2" stroke-linecap="round" stroke-linejoin="round"/>
<path d="M115.988 113.208L116.002 116.195" stroke="black" stroke-width="2" stroke-linecap="round" stroke-linejoin="round"/>
<path d="M61.2988 83.3721C63.3126 74.5485 68.8353 67.054 76.3275 62.417" stroke="black" stroke-width="2" stroke-linecap="round" stroke-linejoin="round"/>
<path d="M78.4775 120.43C83.1209 122.85 88.4023 124.218 94.0055 124.218C99.6086 124.218 104.887 122.85 109.528 120.43" stroke="black" stroke-width="2" stroke-linecap="round" stroke-linejoin="round"/>
<path d="M111.681 62.417C119.17 67.0513 124.693 74.5485 126.707 83.3721" stroke="black" stroke-width="2" stroke-linecap="round" stroke-linejoin="round"/>
</g>
<path d="M187.5 85C187.5 136.915 145.639 179 94 179C42.3614 179 0.5 136.915 0.5 85" stroke="url(#paint0_linear_2223_13510)" stroke-dasharray="2 2"/>
<defs>
<linearGradient id="paint0_linear_2223_13510" x1="94" y1="85" x2="94" y2="179" gradientUnits="userSpaceOnUse">
<stop stop-color="#9E0C1B" stop-opacity="0"/>
<stop offset="1" stop-color="#9E0C1B"/>
</linearGradient>
<clipPath id="clip0_2223_13510">
<rect width="86" height="84" fill="white" transform="translate(51 41)"/>
</clipPath>
</defs>
</svg>
