<svg width="36" height="36" viewBox="0 0 36 36" fill="none" xmlns="http://www.w3.org/2000/svg">
<path d="M31.0667 29.1504H30.1333V18.5729H31.0667C31.4531 18.5729 31.7667 18.2593 31.7667 17.8729C31.7667 17.4865 31.4531 17.1729 31.0667 17.1729H29.5911L20.0309 12.6201C20.2251 12.2785 20.3296 11.893 20.3333 11.5001C20.3333 11.1137 20.0197 10.8001 19.6333 10.8001C19.2469 10.8001 18.9333 11.1137 18.9333 11.5001C18.9333 12.0153 18.5143 12.4334 17.9991 12.4325C17.4839 12.4325 17.0657 12.0134 17.0667 11.4982C17.0667 11.1212 17.2944 10.7805 17.6435 10.6368C18.2959 10.3577 18.714 9.71091 18.7 9.00157V7.67157C19.0285 7.44944 19.2273 7.08077 19.2329 6.68411C19.2329 6.00277 18.6813 5.45117 18 5.45117C17.3187 5.45117 16.7671 6.00277 16.7671 6.68411C16.7727 7.08077 16.9715 7.44944 17.3 7.67157V9.00157C17.3075 9.14064 17.2347 9.2713 17.1133 9.33851C16.0941 9.7557 15.5071 10.83 15.7068 11.9126C15.7525 12.1628 15.8403 12.4026 15.9653 12.6238L6.40894 17.1729H4.93334C4.54694 17.1729 4.23334 17.4865 4.23334 17.8729C4.23334 18.2593 4.54694 18.5729 4.93334 18.5729H5.86667V29.1504H4.93334C4.54694 29.1504 4.23334 29.464 4.23334 29.8504C4.23334 30.2368 4.54694 30.5504 4.93334 30.5504H31.0667C31.4531 30.5504 31.7667 30.2368 31.7667 29.8504C31.7667 29.464 31.4531 29.1504 31.0667 29.1504ZM17.09 13.6374C17.2477 13.7084 17.4129 13.7597 17.5828 13.7924C17.7191 13.8157 17.8581 13.8278 17.9963 13.8278C18.3099 13.826 18.6197 13.7606 18.9081 13.6365L26.3356 17.1729H9.6644L17.09 13.6374ZM28.7333 29.1504H7.26667V18.5729H28.7333V29.1504Z" fill="#9496A1"/>
<path d="M11.2483 27.4909C11.6347 27.4909 11.9483 27.1773 11.9483 26.7909V20.9305C11.9483 20.5441 11.6347 20.2305 11.2483 20.2305C10.8619 20.2305 10.5483 20.5441 10.5483 20.9305V26.7909C10.5483 27.1773 10.8619 27.4909 11.2483 27.4909Z" fill="#9496A1"/>
<path d="M15.7497 27.4909C16.1361 27.4909 16.4497 27.1773 16.4497 26.7909V20.9305C16.4497 20.5441 16.1361 20.2305 15.7497 20.2305C15.3633 20.2305 15.0497 20.5441 15.0497 20.9305V26.7909C15.0497 27.1773 15.3633 27.4909 15.7497 27.4909Z" fill="#9496A1"/>
<path d="M20.2503 27.4909C20.6367 27.4909 20.9503 27.1773 20.9503 26.7909V20.9305C20.9503 20.5441 20.6367 20.2305 20.2503 20.2305C19.8639 20.2305 19.5503 20.5441 19.5503 20.9305V26.7909C19.5503 27.1773 19.8639 27.4909 20.2503 27.4909Z" fill="#9496A1"/>
<path d="M24.7517 27.4909C25.1381 27.4909 25.4517 27.1773 25.4517 26.7909V20.9305C25.4517 20.5441 25.1381 20.2305 24.7517 20.2305C24.3653 20.2305 24.0517 20.5441 24.0517 20.9305V26.7909C24.0517 27.1773 24.3653 27.4909 24.7517 27.4909Z" fill="#9496A1"/>
</svg>
