<svg width="36" height="36" viewBox="0 0 36 36" fill="none" xmlns="http://www.w3.org/2000/svg">
<g clip-path="url(#clip0_2223_11106)">
<path d="M11.7238 14.7512V4.31836H29.6546V30.6806H19.1108V29.3884H28.3624V9.0604H13.016V14.7512H11.7238ZM11.9129 16.913L8.50034 20.1862H15.6227L12.2104 16.913L13.1037 15.984L17.4844 20.1862H18.7775V24.0898H17.5654V28.8408C17.5654 29.8524 16.7372 30.6806 15.7257 30.6806H8.39765C7.38578 30.6806 6.5576 29.8521 6.5576 28.8408V24.0898H5.34546V20.1862H6.6386L11.0193 15.984L11.9129 16.913ZM8.39765 29.3884H15.7257C16.027 29.3884 16.2732 29.1419 16.2732 28.8408V24.0898H7.84978V28.8408C7.84978 29.1422 8.09597 29.3884 8.39765 29.3884ZM17.4854 21.4784H6.63764V22.7977H17.4854V21.4784ZM19.5407 25.5533H27.2354V26.8455H19.5407V25.5533ZM19.5407 23.7582H27.2354V25.0504H19.5407V23.7582ZM19.5407 19.1998H27.2354V20.492H19.5407V19.1998ZM19.5407 17.4044H27.2354V18.6966H19.5407V17.4044ZM19.5407 12.8461H27.2354V14.1383H19.5407V12.8461ZM19.5407 11.0507H27.2354V12.3428H19.5407V11.0507ZM14.5547 12.0565L15.5659 12.8936L17.9053 10.9604L18.7281 11.9547L15.5649 14.5684L13.7319 13.0508L14.5547 12.0565ZM28.3624 7.76822V5.61054H13.016V7.76822H28.3624Z" fill="#9496A1"/>
</g>
<defs>
<clipPath id="clip0_2223_11106">
<rect width="36" height="36" fill="white"/>
</clipPath>
</defs>
</svg>
