<svg width="36" height="36" viewBox="0 0 36 36" fill="none" xmlns="http://www.w3.org/2000/svg">
<g clip-path="url(#clip0_2223_11113)">
<g clip-path="url(#clip1_2223_11113)">
<path d="M22.4615 7.57227H12.0769V8.95688H22.4615V7.57227Z" fill="#9496A1"/>
<path d="M19 13.8023C16.7085 13.8023 14.8462 11.94 14.8462 9.64846V4.10999C14.8462 3.9023 14.9362 3.70846 15.1023 3.57692C15.2616 3.44538 15.4693 3.38999 15.677 3.43153L22.6 4.81615C22.9254 4.87846 23.1539 5.1623 23.1539 5.49461V9.64846C23.1539 11.94 21.2916 13.8023 19 13.8023ZM16.2308 4.95461V9.64846C16.2308 11.1785 17.47 12.4177 19 12.4177C20.53 12.4177 21.7693 11.1785 21.7693 9.64846V6.0623L16.2308 4.95461Z" fill="#9496A1"/>
<path d="M23.8462 30.4173H14.1539C13.8908 30.4173 13.6554 30.2719 13.5377 30.0365C13.42 29.8011 13.4408 29.5242 13.5931 29.3165L23.1954 16.1973L24.31 17.0142L15.5108 29.0326H23.8393V30.4173H23.8462Z" fill="#9496A1"/>
<path d="M24.1992 33.782L23.4862 32.5982L26.2762 30.9228C26.4838 30.7982 26.6154 30.5697 26.6154 30.3274V21.002C26.6154 19.832 26.0338 18.752 25.0646 18.1082C21.3815 15.6851 16.6185 15.6851 12.9354 18.1082C11.9662 18.7451 11.3846 19.8251 11.3846 21.002V30.3274C11.3846 30.5697 11.5162 30.7982 11.7238 30.9228L14.5138 32.5982L13.8008 33.782L11.0108 32.1066C10.3877 31.7328 10 31.0543 10 30.3274V21.002C10 19.3613 10.81 17.852 12.1738 16.952C16.3208 14.2243 21.6792 14.2243 25.8262 16.952C27.19 17.8451 28 19.3613 28 21.002V30.3274C28 31.0543 27.6123 31.7328 26.9892 32.1066L24.1992 33.782Z" fill="#9496A1"/>
<path d="M14.8462 22.1094H13.4615V35.9555H14.8462V22.1094Z" fill="#9496A1"/>
<path d="M24.5384 22.1094H23.1538V35.9555H24.5384V22.1094Z" fill="#9496A1"/>
</g>
</g>
<defs>
<clipPath id="clip0_2223_11113">
<rect width="36" height="36" fill="white"/>
</clipPath>
<clipPath id="clip1_2223_11113">
<rect width="30" height="30" fill="white" transform="translate(4 3)"/>
</clipPath>
</defs>
</svg>
