<svg width="36" height="36" viewBox="0 0 36 36" fill="none" xmlns="http://www.w3.org/2000/svg">
<g clip-path="url(#clip0_2223_11126)">
<g clip-path="url(#clip1_2223_11126)">
<path d="M6.31849 26.2929C6.91918 26.282 7.50365 26.4881 7.96459 26.8734C8.33259 27.1494 8.74127 27.3665 9.17599 27.5169C9.5649 27.6376 9.97033 27.6965 10.3775 27.6915C11.2514 27.7028 12.1028 27.4141 12.7895 26.8734C13.2555 26.4978 13.8361 26.293 14.4347 26.293C15.0333 26.293 15.6138 26.4978 16.0799 26.8734C16.7724 27.404 17.6204 27.6916 18.4928 27.6916C19.3652 27.6916 20.2132 27.404 20.9057 26.8734C21.3729 26.4978 21.9545 26.293 22.554 26.293C23.1536 26.293 23.7351 26.4978 24.2024 26.8734C24.8955 27.404 25.7442 27.6915 26.6171 27.6915C27.49 27.6915 28.3386 27.404 29.0318 26.8734C29.4941 26.488 30.0797 26.2819 30.6815 26.2929C30.8605 26.2929 31.0322 26.2218 31.1588 26.0952C31.2854 25.9686 31.3565 25.797 31.3565 25.6179C31.3565 25.4389 31.2854 25.2672 31.1588 25.1406C31.0322 25.014 30.8605 24.9429 30.6815 24.9429C29.8067 24.9312 28.9543 25.22 28.2668 25.761C28.0729 25.9 27.8679 26.0229 27.6539 26.1282L28.9571 23.0727C29.0963 22.7474 29.1644 22.3962 29.1568 22.0424C29.1492 21.6887 29.0661 21.3406 28.913 21.0216C28.7653 20.7154 28.5554 20.4433 28.2966 20.2228C28.0378 20.0022 27.7358 19.8381 27.41 19.7409V14.7522C27.4086 13.6189 26.9577 12.5323 26.1563 11.7309C25.3549 10.9295 24.2684 10.4787 23.135 10.4772H22.5185V6.96903C22.5231 6.66895 22.4644 6.37126 22.3462 6.09539C22.2281 5.81951 22.0531 5.57164 21.8327 5.36793C20.8937 4.60156 19.7117 4.19588 18.5 4.22403C17.2733 4.19668 16.0777 4.61202 15.1322 5.39403C14.9215 5.59487 14.7546 5.83709 14.642 6.1055C14.5294 6.37391 14.4736 6.66269 14.4779 6.95373V10.479H13.8614C12.728 10.4805 11.6415 10.9313 10.8401 11.7327C10.0387 12.5341 9.58782 13.6207 9.58639 14.754V19.7427C9.26129 19.8402 8.96006 20.0044 8.70191 20.2247C8.44375 20.4451 8.23433 20.7168 8.08699 21.0225C7.93412 21.3414 7.85111 21.6893 7.8435 22.0429C7.8359 22.3964 7.90388 22.7476 8.04289 23.0727L9.34339 26.121C9.12955 26.0186 8.92481 25.8982 8.73139 25.761C8.04439 25.2203 7.19271 24.9315 6.31849 24.9429C6.13947 24.9429 5.96778 25.014 5.8412 25.1406C5.71461 25.2672 5.64349 25.4389 5.64349 25.6179C5.64349 25.797 5.71461 25.9686 5.8412 26.0952C5.96778 26.2218 6.13947 26.2929 6.31849 26.2929ZM16.0331 6.40293C16.7325 5.84542 17.6059 5.55197 18.5 5.57403C19.3797 5.54862 20.2407 5.83094 20.9345 6.37233C21.0122 6.44744 21.0733 6.53797 21.1139 6.6381C21.1545 6.73822 21.1737 6.84574 21.1703 6.95373V7.86093C20.3348 7.46624 19.4222 7.26154 18.4982 7.26154C17.5742 7.26154 16.6616 7.46624 15.8261 7.86093V6.93933C15.8234 6.84013 15.8403 6.74138 15.8758 6.64873C15.9114 6.55607 15.9648 6.47132 16.0331 6.39933V6.40293ZM15.8279 9.41253C16.6139 8.87478 17.5478 8.59485 18.5 8.61153C19.4516 8.5943 20.3852 8.87258 21.1721 9.40803V10.479H15.8279V9.41253ZM13.8614 11.829H23.1386C23.9141 11.83 24.6575 12.1385 25.2058 12.6868C25.7542 13.2351 26.0626 13.9786 26.0636 14.754V19.299C23.6106 18.4909 21.415 17.0484 19.6997 15.1176C19.5478 14.9503 19.3627 14.8166 19.156 14.725C18.9494 14.6335 18.726 14.5863 18.5 14.5863C18.274 14.5863 18.0506 14.6335 17.8439 14.725C17.6373 14.8166 17.4521 14.9503 17.3003 15.1176C15.5859 17.0478 13.3917 18.4904 10.94 19.299V14.7522C10.9414 13.9777 11.2496 13.2353 11.7971 12.6874C12.3446 12.1396 13.0869 11.8309 13.8614 11.829ZM9.30469 21.6057C9.37099 21.464 9.4673 21.3383 9.58696 21.2375C9.70662 21.1366 9.84676 21.063 9.99769 21.0216C13.2129 20.2059 16.1139 18.4547 18.3335 15.9897C18.4496 15.8511 18.5549 15.8547 18.6665 15.9897C20.8864 18.4542 23.7873 20.205 27.0023 21.0207C27.1532 21.0621 27.2934 21.1357 27.413 21.2366C27.5327 21.3374 27.629 21.4631 27.6953 21.6048C27.7653 21.7503 27.8034 21.9092 27.8069 22.0706C27.8105 22.232 27.7795 22.3924 27.716 22.5408L26.1131 26.2974C25.694 26.2102 25.3014 26.0252 24.9674 25.7574C24.2747 25.2269 23.4265 24.9394 22.554 24.9394C21.6815 24.9394 20.8334 25.2269 20.1407 25.7574C19.6739 26.1329 19.0928 26.3376 18.4937 26.3376C17.8946 26.3376 17.3135 26.1329 16.8467 25.7574C16.1603 25.2161 15.3088 24.927 14.4347 24.9384C13.5606 24.927 12.7091 25.2161 12.0227 25.7574C11.6914 26.0236 11.3024 26.2085 10.8869 26.2974L9.28399 22.539C9.2209 22.3909 9.19011 22.2311 9.19368 22.0701C9.19725 21.9092 9.23509 21.7509 9.30469 21.6057Z" fill="#9496A1"/>
<path d="M12.7895 29.9562C13.2558 29.581 13.8363 29.3765 14.4347 29.3765C15.0332 29.3765 15.6137 29.581 16.0799 29.9562C16.7724 30.4868 17.6204 30.7743 18.4928 30.7743C19.3652 30.7743 20.2132 30.4868 20.9057 29.9562C21.3732 29.581 21.9547 29.3765 22.5541 29.3765C23.1535 29.3765 23.735 29.581 24.2024 29.9562C24.89 30.4971 25.7423 30.7859 26.6171 30.7743C26.7961 30.7743 26.9678 30.7032 27.0944 30.5766C27.221 30.45 27.2921 30.2783 27.2921 30.0993C27.2921 29.9203 27.221 29.7486 27.0944 29.622C26.9678 29.4954 26.7961 29.4243 26.6171 29.4243C26.0154 29.4351 25.4298 29.2291 24.9674 28.8438C24.2746 28.3137 23.4264 28.0265 22.5541 28.0265C21.6817 28.0265 20.8336 28.3137 20.1407 28.8438C19.6739 29.2193 19.0928 29.4239 18.4937 29.4239C17.8946 29.4239 17.3135 29.2193 16.8467 28.8438C16.16 28.3032 15.3086 28.0144 14.4347 28.0257C13.5608 28.0144 12.7094 28.3032 12.0227 28.8438C11.562 29.2288 10.9778 29.4346 10.3775 29.4234C10.1985 29.4234 10.0268 29.4945 9.90022 29.6211C9.77363 29.7477 9.70251 29.9194 9.70251 30.0984C9.70251 30.2774 9.77363 30.4491 9.90022 30.5757C10.0268 30.7023 10.1985 30.7734 10.3775 30.7734C11.2513 30.785 12.1027 30.4965 12.7895 29.9562Z" fill="#9496A1"/>
<path d="M12.7508 23.1845C12.8252 23.1844 12.8992 23.172 12.9695 23.1476C14.9681 22.4864 16.8387 21.4876 18.5 20.1947C20.1612 21.4886 22.0321 22.4877 24.0314 23.1485C24.1153 23.1771 24.204 23.1889 24.2925 23.1832C24.381 23.1775 24.4675 23.1544 24.547 23.1153C24.6266 23.0762 24.6977 23.0218 24.7562 22.9552C24.8147 22.8887 24.8596 22.8112 24.8882 22.7273C24.9168 22.6434 24.9286 22.5546 24.9229 22.4662C24.9172 22.3777 24.8942 22.2912 24.855 22.2116C24.8159 22.1321 24.7615 22.061 24.695 22.0025C24.6284 21.9439 24.5509 21.8991 24.467 21.8705C22.4471 21.21 20.5712 20.1716 18.9392 18.8105C18.8169 18.7059 18.6613 18.6484 18.5004 18.6484C18.3396 18.6484 18.184 18.7059 18.0617 18.8105C16.4287 20.1711 14.5523 21.2095 12.5321 21.8705C12.3806 21.922 12.2524 22.0257 12.1703 22.1631C12.0881 22.3004 12.0575 22.4625 12.0837 22.6203C12.11 22.7781 12.1915 22.9215 12.3137 23.0249C12.4359 23.1282 12.5908 23.1848 12.7508 23.1845Z" fill="#9496A1"/>
</g>
</g>
<defs>
<clipPath id="clip0_2223_11126">
<rect width="36" height="36" fill="white"/>
</clipPath>
<clipPath id="clip1_2223_11126">
<rect width="27" height="27" fill="white" transform="translate(5 4)"/>
</clipPath>
</defs>
</svg>
