<svg width="36" height="36" viewBox="0 0 36 36" fill="none" xmlns="http://www.w3.org/2000/svg">
<g clip-path="url(#clip0_2223_11134)">
<g clip-path="url(#clip1_2223_11134)">
<path d="M11.0625 27.375C6.0625 27.375 2 23.3125 2 18.3125C2 13.3125 6.0625 9.25 11.0625 9.25C16.0625 9.25 20.125 13.3125 20.125 18.3125C20.125 23.3125 16.0625 27.375 11.0625 27.375ZM11.0625 10.5C6.75625 10.5 3.25 14.0062 3.25 18.3125C3.25 22.6187 6.75625 26.125 11.0625 26.125C15.3687 26.125 18.875 22.6187 18.875 18.3125C18.875 14.0062 15.3687 10.5 11.0625 10.5Z" fill="#9496A1"/>
<path d="M14.25 21.1254L10.7188 18.8316C10.5313 18.7066 10.425 18.4941 10.4375 18.2754L10.75 12.6504L12 12.7191L11.7063 17.9816L14.9313 20.0754L14.25 21.1254Z" fill="#9496A1"/>
<path d="M22.9375 27.375C21.3875 27.375 19.8562 26.975 18.5062 26.2188L19.1187 25.1313C20.2812 25.7812 21.6 26.125 22.9375 26.125C27.2437 26.125 30.75 22.6187 30.75 18.3125C30.75 14.0062 27.2437 10.5 22.9375 10.5C21.6 10.5 20.2812 10.8438 19.1187 11.4938L18.5062 10.4063C19.85 9.65 21.3812 9.25 22.9375 9.25C27.9375 9.25 32 13.3125 32 18.3125C32 23.3125 27.9375 27.375 22.9375 27.375Z" fill="#9496A1"/>
<path d="M23.2812 22.2258L22.3312 18.4633C22.275 18.2508 22.3375 18.0258 22.4937 17.8695L26.4687 13.8945L27.35 14.7758L23.625 18.5008L24.4875 21.9195L23.275 22.2258H23.2812Z" fill="#9496A1"/>
</g>
</g>
<defs>
<clipPath id="clip0_2223_11134">
<rect width="36" height="36" fill="white"/>
</clipPath>
<clipPath id="clip1_2223_11134">
<rect width="30" height="30" fill="white" transform="translate(2 3)"/>
</clipPath>
</defs>
</svg>
