<svg width="36" height="36" viewBox="0 0 36 36" fill="none" xmlns="http://www.w3.org/2000/svg">
<g clip-path="url(#clip0_2223_11147)">
<path d="M32.125 15.5623H31.4792V12.3331C31.4792 11.8193 31.275 11.3265 30.9117 10.9631C30.5483 10.5997 30.0555 10.3956 29.5417 10.3956H27.7889L22.7798 7.26462C22.7077 7.21967 22.6275 7.18936 22.5437 7.17542C22.4599 7.16148 22.3741 7.16418 22.2914 7.18337C22.1242 7.22213 21.9793 7.32569 21.8885 7.47129C21.7978 7.61688 21.7685 7.79257 21.8073 7.95971C21.846 8.12686 21.9496 8.27176 22.0952 8.36254L25.3521 10.3956H13.0639L16.3215 8.35995C16.4671 8.26917 16.5706 8.12427 16.6094 7.95713C16.6481 7.78999 16.6189 7.6143 16.5281 7.4687C16.4373 7.32311 16.2924 7.21954 16.1253 7.18079C15.9582 7.14203 15.7825 7.17126 15.6369 7.26204L10.6278 10.3956H8.875C8.36114 10.3956 7.86833 10.5997 7.50498 10.9631C7.14163 11.3265 6.9375 11.8193 6.9375 12.3331V26.5415C6.9375 27.0553 7.14163 27.5481 7.50498 27.9115C7.86833 28.2748 8.36114 28.479 8.875 28.479H32.125C32.6389 28.479 33.1317 28.2748 33.495 27.9115C33.8584 27.5481 34.0625 27.0553 34.0625 26.5415V17.4998C34.0625 16.9859 33.8584 16.4931 33.495 16.1298C33.1317 15.7664 32.6389 15.5623 32.125 15.5623ZM32.7708 17.4998V18.1456H29.5417V16.854H32.125C32.2963 16.854 32.4606 16.922 32.5817 17.0431C32.7028 17.1642 32.7708 17.3285 32.7708 17.4998ZM25.6667 18.1456H22.4375V17.4998C22.4375 17.3285 22.5055 17.1642 22.6267 17.0431C22.7478 16.922 22.912 16.854 23.0833 16.854H25.6667V18.1456ZM26.9583 16.854H28.25V20.729H26.9583V16.854ZM23.0833 15.5623C22.5695 15.5623 22.0767 15.7664 21.7133 16.1298C21.35 16.4931 21.1458 16.9859 21.1458 17.4998V24.604H19.8542V14.2706H30.1875V15.5623H23.0833ZM15.9792 24.604V14.2706H18.5625V24.604H15.9792ZM12.1042 24.604V14.2706H14.6875V24.604H12.1042ZM8.22917 24.604V14.2706H10.8125V24.604H8.22917ZM8.875 11.6873H29.5417C29.713 11.6873 29.8772 11.7553 29.9983 11.8764C30.1195 11.9976 30.1875 12.1618 30.1875 12.3331V12.979H8.22917V12.3331C8.22917 12.1618 8.29721 11.9976 8.41833 11.8764C8.53944 11.7553 8.70371 11.6873 8.875 11.6873ZM8.22917 26.5415V25.8956H21.1458V26.5415C21.148 26.762 21.1882 26.9805 21.2647 27.1873H8.875C8.70371 27.1873 8.53944 27.1192 8.41833 26.9981C8.29721 26.877 8.22917 26.7127 8.22917 26.5415ZM32.125 27.1873H23.0833C22.912 27.1873 22.7478 27.1192 22.6267 26.9981C22.5055 26.877 22.4375 26.7127 22.4375 26.5415V19.4373H25.6667V21.0519C25.6667 21.3088 25.7687 21.5552 25.9504 21.7369C26.1321 21.9186 26.3785 22.0206 26.6354 22.0206H28.5729C28.8298 22.0206 29.0763 21.9186 29.2579 21.7369C29.4396 21.5552 29.5417 21.3088 29.5417 21.0519V19.4373H32.7708V26.5415C32.7708 26.7127 32.7028 26.877 32.5817 26.9981C32.4606 27.1192 32.2963 27.1873 32.125 27.1873Z" fill="#9496A1"/>
<path d="M26.3125 24.6035H24.375C24.2037 24.6035 24.0395 24.6716 23.9183 24.7927C23.7972 24.9138 23.7292 25.0781 23.7292 25.2493C23.7292 25.4206 23.7972 25.5849 23.9183 25.706C24.0395 25.8271 24.2037 25.8952 24.375 25.8952H26.3125C26.4838 25.8952 26.6481 25.8271 26.7692 25.706C26.8903 25.5849 26.9584 25.4206 26.9584 25.2493C26.9584 25.0781 26.8903 24.9138 26.7692 24.7927C26.6481 24.6716 26.4838 24.6035 26.3125 24.6035Z" fill="#9496A1"/>
<path d="M19.2083 8.45833C19.6655 8.45858 20.1081 8.29711 20.4578 8.00249C20.8074 7.70787 21.0416 7.29909 21.119 6.84844C21.1963 6.39779 21.1117 5.93432 20.8802 5.54C20.6488 5.14568 20.2853 4.84593 19.8541 4.69377V4.58333C19.8541 4.41205 19.7861 4.24778 19.665 4.12666C19.5439 4.00554 19.3796 3.9375 19.2083 3.9375C19.037 3.9375 18.8727 4.00554 18.7516 4.12666C18.6305 4.24778 18.5625 4.41205 18.5625 4.58333V5.22917C18.5625 5.40045 18.6305 5.56472 18.7516 5.68584C18.8727 5.80696 19.037 5.875 19.2083 5.875C19.3216 5.87511 19.433 5.90505 19.5311 5.9618C19.6292 6.01855 19.7106 6.10013 19.7672 6.19833C19.8238 6.29652 19.8536 6.40789 19.8535 6.52123C19.8534 6.63457 19.8235 6.74589 19.7668 6.84402C19.7101 6.94215 19.6286 7.02362 19.5304 7.08026C19.4322 7.13689 19.3209 7.16669 19.2075 7.16667C19.0942 7.16664 18.9828 7.13678 18.8847 7.0801C18.7865 7.02342 18.705 6.94191 18.6484 6.84375C18.56 6.70095 18.4195 6.59818 18.2567 6.55721C18.0939 6.51625 17.9215 6.54032 17.7761 6.62431C17.6307 6.7083 17.5237 6.84562 17.4779 7.00715C17.432 7.16868 17.4509 7.34172 17.5304 7.48958C17.701 7.78367 17.9457 8.0279 18.2401 8.19788C18.5345 8.36787 18.8683 8.45767 19.2083 8.45833Z" fill="#9496A1"/>
</g>
<defs>
<clipPath id="clip0_2223_11147">
<rect width="36" height="36" fill="white"/>
</clipPath>
</defs>
</svg>
