<svg width="36" height="36" viewBox="0 0 36 36" fill="none" xmlns="http://www.w3.org/2000/svg">
<g opacity="0.7" clip-path="url(#clip0_2223_11156)">
<g clip-path="url(#clip1_2223_11156)">
<path d="M29.0469 8.22266H22.3086V6.95312C22.308 6.46121 22.1123 5.98963 21.7645 5.6418C21.4166 5.29396 20.945 5.09828 20.4531 5.09766H16.5469C16.055 5.09828 15.5834 5.29396 15.2355 5.6418C14.8877 5.98963 14.692 6.46121 14.6914 6.95312V8.22266H7.95312C7.46121 8.22328 6.98963 8.41896 6.6418 8.7668C6.29396 9.11463 6.09828 9.58621 6.09766 10.0781V14.375C6.09766 14.5563 6.16968 14.7302 6.29788 14.8584C6.42607 14.9866 6.59995 15.0586 6.78125 15.0586H7.26953V27.6562C7.27025 28.2517 7.50713 28.8226 7.9282 29.2437C8.34926 29.6647 8.92015 29.9016 9.51562 29.9023H27.4844C28.0799 29.9017 28.6508 29.6649 29.0719 29.2438C29.493 28.8227 29.7298 28.2518 29.7305 27.6562V15.0586H30.2188C30.3085 15.0586 30.3975 15.041 30.4804 15.0067C30.5634 14.9723 30.6388 14.922 30.7022 14.8585C30.7657 14.795 30.8161 14.7196 30.8504 14.6367C30.8847 14.5537 30.9024 14.4648 30.9023 14.375V10.0781C30.9017 9.58621 30.706 9.11463 30.3582 8.7668C30.0104 8.41896 29.5388 8.22328 29.0469 8.22266ZM16.0586 6.95312C16.0588 6.82369 16.1103 6.69961 16.2018 6.60809C16.2934 6.51656 16.4174 6.46505 16.5469 6.46484H20.4531C20.5826 6.46505 20.7066 6.51656 20.7982 6.60809C20.8897 6.69961 20.9412 6.82369 20.9414 6.95312V8.22266H16.0586V6.95312ZM28.3633 27.6562C28.363 27.8893 28.2703 28.1126 28.1055 28.2774C27.9408 28.4421 27.7174 28.5348 27.4844 28.5352H9.51562C9.28262 28.5348 9.05925 28.4421 8.89449 28.2774C8.72973 28.1126 8.63703 27.8893 8.63672 27.6562V15.0586H28.3633V27.6562ZM14.4961 13.6914V13.2031C14.4964 12.9701 14.5891 12.7467 14.7539 12.582C14.9186 12.4172 15.142 12.3245 15.375 12.3242H21.625C21.858 12.3245 22.0814 12.4172 22.2461 12.582C22.4109 12.7467 22.5036 12.9701 22.5039 13.2031V13.6914H14.4961ZM29.5352 13.6914H23.8711V13.2031C23.8705 12.6076 23.6336 12.0367 23.2125 11.6156C22.7915 11.1945 22.2205 10.9577 21.625 10.957H15.375C14.7795 10.9577 14.2085 11.1945 13.7875 11.6156C13.3664 12.0367 13.1295 12.6076 13.1289 13.2031V13.6914H7.46484V10.0781C7.46505 9.94869 7.51656 9.82461 7.60809 9.73309C7.69961 9.64156 7.82369 9.59005 7.95312 9.58984H29.0469C29.1763 9.59005 29.3004 9.64156 29.3919 9.73309C29.4834 9.82461 29.535 9.94869 29.5352 10.0781V13.6914Z" fill="#9496A1"/>
<path d="M14.0313 22.4654C13.9434 22.4386 13.8511 22.4298 13.7598 22.4395C13.6685 22.4492 13.5801 22.4772 13.4998 22.5218C13.4195 22.5664 13.3491 22.6267 13.2927 22.6991C13.2362 22.7716 13.195 22.8546 13.1713 22.9434C13.1477 23.0321 13.1422 23.1247 13.1551 23.2156C13.1681 23.3065 13.1992 23.3939 13.2466 23.4725C13.2941 23.5511 13.3569 23.6194 13.4313 23.6732C13.5057 23.727 13.5902 23.7653 13.6797 23.7857L14.6203 24.0376L14.368 24.9783C14.3211 25.1534 14.3456 25.34 14.4363 25.497C14.5269 25.6541 14.6762 25.7686 14.8514 25.8156C15.0265 25.8625 15.2131 25.8379 15.3701 25.7473C15.5272 25.6566 15.6418 25.5073 15.6887 25.3322L16.0442 24.0041L17.1703 23.3541C17.3615 23.5178 17.5812 23.6449 17.8184 23.7291V25.0283L16.8469 26.0001C16.7187 26.1283 16.6467 26.3021 16.6467 26.4834C16.6467 26.6646 16.7187 26.8384 16.8469 26.9666C16.975 27.0947 17.1489 27.1667 17.3301 27.1667C17.5113 27.1667 17.6851 27.0947 17.8133 26.9666L18.5 26.2791L19.1887 26.9673C19.3168 27.0955 19.4907 27.1675 19.6719 27.1675C19.8531 27.1675 20.0269 27.0955 20.1551 26.9673C20.2832 26.8392 20.3552 26.6654 20.3552 26.4841C20.3552 26.3029 20.2832 26.1291 20.1551 26.0009L19.1836 25.0291V23.7298C19.4208 23.6457 19.6405 23.5186 19.8317 23.3548L20.9578 24.0048L21.3133 25.333C21.3602 25.5081 21.4748 25.6574 21.6318 25.7481C21.7889 25.8387 21.9755 25.8633 22.1506 25.8164C22.3257 25.7694 22.4751 25.6548 22.5657 25.4978C22.6564 25.3408 22.6809 25.1542 22.634 24.9791L22.3817 24.0384L23.3223 23.7865C23.4108 23.765 23.4941 23.726 23.5674 23.6718C23.6406 23.6176 23.7023 23.5493 23.7488 23.471C23.7952 23.3926 23.8256 23.3058 23.838 23.2155C23.8505 23.1252 23.8447 23.0334 23.8212 22.9454C23.7976 22.8574 23.7567 22.775 23.7008 22.703C23.6449 22.6311 23.5753 22.571 23.4958 22.5264C23.4164 22.4817 23.3289 22.4534 23.2384 22.443C23.1479 22.4327 23.0562 22.4406 22.9688 22.4662L21.6406 22.8216L20.5156 22.172C20.5615 21.9243 20.5615 21.6702 20.5156 21.4224L21.6406 20.7732L22.9688 21.1287C23.0562 21.1543 23.1479 21.1621 23.2384 21.1518C23.3289 21.1414 23.4164 21.1131 23.4958 21.0685C23.5753 21.0238 23.6449 20.9637 23.7008 20.8918C23.7567 20.8198 23.7976 20.7374 23.8212 20.6494C23.8447 20.5614 23.8505 20.4696 23.838 20.3793C23.8256 20.2891 23.7952 20.2022 23.7488 20.1239C23.7023 20.0455 23.6406 19.9772 23.5674 19.923C23.4941 19.8689 23.4108 19.8299 23.3223 19.8084L22.3817 19.5564L22.634 18.6158C22.6809 18.4406 22.6564 18.254 22.5657 18.097C22.4751 17.94 22.3257 17.8254 22.1506 17.7785C21.9755 17.7315 21.7889 17.7561 21.6318 17.8468C21.4748 17.9374 21.3602 18.0867 21.3133 18.2619L20.9578 19.59L19.8317 20.24C19.6404 20.0763 19.4208 19.949 19.1836 19.8646V18.5638L20.1551 17.5923C20.2185 17.5289 20.2689 17.4535 20.3032 17.3706C20.3376 17.2877 20.3552 17.1989 20.3552 17.1091C20.3552 17.0194 20.3376 16.9305 20.3032 16.8476C20.2689 16.7647 20.2185 16.6894 20.1551 16.6259C20.0916 16.5625 20.0163 16.5121 19.9334 16.4778C19.8505 16.4435 19.7616 16.4258 19.6719 16.4258C19.5822 16.4258 19.4933 16.4435 19.4104 16.4778C19.3275 16.5121 19.2521 16.5625 19.1887 16.6259L18.5 17.3142L17.8113 16.6259C17.7479 16.5625 17.6726 16.5121 17.5896 16.4778C17.5067 16.4435 17.4179 16.4258 17.3281 16.4258C17.2384 16.4258 17.1495 16.4435 17.0666 16.4778C16.9837 16.5121 16.9084 16.5625 16.8449 16.6259C16.7815 16.6894 16.7311 16.7647 16.6968 16.8476C16.6625 16.9305 16.6448 17.0194 16.6448 17.1091C16.6448 17.1989 16.6625 17.2877 16.6968 17.3706C16.7311 17.4535 16.7815 17.5289 16.8449 17.5923L17.8164 18.5638V19.863C17.5793 19.9475 17.3596 20.0747 17.1684 20.2384L16.0422 19.5884L15.6867 18.2603C15.6398 18.0852 15.5252 17.9358 15.3682 17.8452C15.2112 17.7545 15.0246 17.73 14.8494 17.7769C14.6743 17.8238 14.525 17.9384 14.4343 18.0954C14.3437 18.2525 14.3191 18.4391 14.366 18.6142L14.6184 19.5548L13.6777 19.8068C13.5882 19.8272 13.5037 19.8655 13.4293 19.9193C13.3549 19.9731 13.2921 20.0414 13.2447 20.12C13.1972 20.1986 13.1661 20.286 13.1532 20.3769C13.1402 20.4678 13.1458 20.5604 13.1694 20.6491C13.193 20.7378 13.2343 20.8209 13.2907 20.8933C13.3471 20.9658 13.4176 21.0261 13.4978 21.0707C13.5781 21.1153 13.6665 21.1433 13.7578 21.153C13.8492 21.1627 13.9415 21.1539 14.0293 21.1271L15.3574 20.7716L16.4824 21.4209C16.4366 21.6686 16.4366 21.9227 16.4824 22.1705L15.3574 22.8201L14.0313 22.4654ZM18.5 21.113C18.6352 21.113 18.7674 21.1531 18.8798 21.2282C18.9922 21.3034 19.0798 21.4101 19.1316 21.535C19.1833 21.6599 19.1968 21.7974 19.1705 21.93C19.1441 22.0626 19.079 22.1844 18.9834 22.28C18.8878 22.3756 18.766 22.4407 18.6334 22.4671C18.5008 22.4935 18.3633 22.4799 18.2384 22.4282C18.1135 22.3765 18.0067 22.2888 17.9316 22.1764C17.8565 22.064 17.8164 21.9318 17.8164 21.7966C17.8166 21.6154 17.8887 21.4416 18.0169 21.3135C18.145 21.1853 18.3188 21.1132 18.5 21.113Z" fill="#9496A1"/>
</g>
</g>
<defs>
<clipPath id="clip0_2223_11156">
<rect width="36" height="36" fill="white"/>
</clipPath>
<clipPath id="clip1_2223_11156">
<rect width="25" height="25" fill="white" transform="translate(6 5)"/>
</clipPath>
</defs>
</svg>
