<svg width="36" height="36" viewBox="0 0 36 36" fill="none" xmlns="http://www.w3.org/2000/svg">
<g clip-path="url(#clip0_2223_11025)">
<path d="M27.3333 34H11.3333V20H27.3333V34ZM12.6667 32.6667H26V21.3333H12.6667V32.6667Z" fill="#9496A1"/>
<path d="M20 20.666H18.6667V23.9993H20V20.666Z" fill="#9496A1"/>
<path d="M24 29.332H22.6667V30.6654H24V29.332Z" fill="#9496A1"/>
<path d="M21.3334 29.332H20V30.6654H21.3334V29.332Z" fill="#9496A1"/>
<path d="M15.3333 13.333H11.3333C8.59332 13.333 6.41332 12.3597 5.06666 11.5397C4.62666 11.273 4.31332 10.8597 4.17332 10.373L3.73999 8.85299L5.01999 8.48633L5.45332 10.0063C5.49999 10.1663 5.60666 10.3063 5.75999 10.3997C6.95999 11.133 8.90666 11.9997 11.3333 11.9997H15.3333V13.333Z" fill="#9496A1"/>
<path d="M28.8932 13.3333H21.3332C21.2466 13.3333 21.1599 13.3133 21.0799 13.28L20.6266 13.0933L21.1399 11.86L21.4732 12H28.8999C29.7399 12 30.5732 11.8533 31.3666 11.5733L32.2332 11.2667C32.4732 11.18 32.6399 10.98 32.6666 10.72C32.6999 10.4667 32.5866 10.2267 32.3732 10.08L31.5866 9.55333C31.3666 9.40667 31.1666 9.24 30.9599 9.06667C30.2999 8.52 29.6732 8 27.9999 8H8.66658C8.54658 8 8.43324 7.96667 8.32658 7.90667C6.01324 6.54667 4.45324 4.22 3.91324 3.33333H3.54658L4.56658 6.90667L3.28658 7.27333L2.02658 2.84667C1.96658 2.64667 2.00658 2.43333 2.13324 2.26667C2.25991 2.1 2.45324 2 2.66658 2H4.29991C4.54658 2 4.77324 2.13333 4.88658 2.35333C4.89991 2.38 6.42658 5.16667 8.85324 6.66667H27.9932C30.1466 6.66667 31.0666 7.42667 31.8066 8.04C31.9799 8.18 32.1466 8.32 32.3266 8.44667L33.1132 8.97333C33.7466 9.39333 34.0799 10.1267 33.9866 10.8867C33.8932 11.64 33.3932 12.2667 32.6732 12.5267L31.8066 12.8333C30.8666 13.1667 29.8866 13.34 28.8932 13.34V13.3333Z" fill="#9496A1"/>
<path d="M13.1667 18.0001H11.0867C10.8267 18.0001 10.5867 17.8467 10.48 17.6067C10.3733 17.3667 10.4133 17.0867 10.5867 16.8934L16.5267 10.2134L17.5267 11.1001L12.5733 16.6734H13.1667C13.42 16.6734 13.6733 16.6001 13.8867 16.4601L23.8067 10.0801L24.5267 11.2001L14.6067 17.5801C14.1733 17.8601 13.68 18.0067 13.1667 18.0067V18.0001Z" fill="#9496A1"/>
<path d="M6.66667 8H2V9.33333H6.66667V8Z" fill="#9496A1"/>
</g>
<defs>
<clipPath id="clip0_2223_11025">
<rect width="32" height="32" fill="white" transform="translate(2 2)"/>
</clipPath>
</defs>
</svg>
