<svg width="36" height="36" viewBox="0 0 36 36" fill="none" xmlns="http://www.w3.org/2000/svg">
<g clip-path="url(#clip0_2223_11042)">
<g clip-path="url(#clip1_2223_11042)">
<path d="M12.6875 32.9996C12.6187 32.9996 12.5563 32.9871 12.4875 32.9684L10.8125 32.4121L9.1375 32.9684C8.83125 33.0746 8.49375 32.9184 8.3625 32.6184L7.83125 31.3684C7.73125 31.1246 7.7875 30.8496 7.98125 30.6684L9.05 29.6621C8.9125 29.1434 8.84375 28.6121 8.825 28.4371C8.75 27.8121 8.75625 27.3496 8.7625 26.7621C8.7625 26.7371 8.7625 26.7184 8.7625 26.6934L3.8 28.1121C3.6125 28.1621 3.40625 28.1246 3.25 28.0121C3.09375 27.8934 3 27.7059 3 27.5121V25.7684C3 25.2871 3.2625 24.8371 3.675 24.5996L8.8625 21.6371L8.7875 18.0059V17.9934C8.7875 16.8809 9.69375 15.9746 10.8062 15.9746C11.9187 15.9746 12.825 16.8809 12.825 17.9934L12.75 21.6371L17.9375 24.5996C18.3562 24.8371 18.6125 25.2871 18.6125 25.7684V27.5121C18.6125 27.7059 18.5188 27.8934 18.3625 28.0121C18.2063 28.1309 18 28.1684 17.8125 28.1121L12.85 26.6934C12.85 26.6934 12.85 26.7371 12.85 26.7621C12.85 27.3496 12.8562 27.8121 12.7875 28.4371C12.7688 28.6184 12.7 29.1434 12.5625 29.6621L13.6313 30.6684C13.825 30.8496 13.8813 31.1246 13.7812 31.3684L13.25 32.6184C13.15 32.8559 12.9187 32.9996 12.675 32.9996H12.6875ZM10.8125 31.1246C10.8812 31.1246 10.9437 31.1371 11.0125 31.1559L12.3375 31.5996L12.475 31.2809L11.4375 30.3059C11.2563 30.1371 11.1937 29.8746 11.275 29.6434C11.4125 29.2496 11.5125 28.6871 11.5625 28.2934C11.625 27.7496 11.625 27.3621 11.6187 26.7746C11.6187 26.5121 11.6187 26.2184 11.6187 25.8621C11.6187 25.6684 11.7125 25.4871 11.8687 25.3684C12.025 25.2496 12.225 25.2184 12.4125 25.2684L17.3687 26.6871V25.7746C17.3687 25.7434 17.35 25.7121 17.3188 25.6934L11.8062 22.5434C11.6062 22.4309 11.4875 22.2184 11.4937 21.9871L11.575 17.9871C11.575 17.5746 11.2312 17.2309 10.8062 17.2309C10.3812 17.2309 10.0375 17.5746 10.0375 17.9934L10.1188 21.9871C10.1188 22.2184 10 22.4309 9.80625 22.5434L4.29375 25.6934C4.29375 25.6934 4.24375 25.7434 4.24375 25.7746V26.6871L9.2 25.2684C9.3875 25.2184 9.5875 25.2496 9.74375 25.3684C9.9 25.4871 9.99375 25.6684 9.99375 25.8621C9.99375 26.2184 9.99375 26.5121 9.99375 26.7746C9.99375 27.3621 9.99375 27.7496 10.05 28.2934C10.0938 28.6871 10.1937 29.2496 10.3375 29.6434C10.4187 29.8746 10.3562 30.1371 10.175 30.3059L9.1375 31.2809L9.275 31.5996L10.6 31.1559C10.6625 31.1371 10.7312 31.1246 10.8 31.1246H10.8125Z" fill="#9496A1"/>
<path d="M28 13C25.2438 13 23 10.7562 23 8C23 5.24375 25.2438 3 28 3C30.7562 3 33 5.24375 33 8C33 10.7562 30.7562 13 28 13ZM28 4.25C25.9313 4.25 24.25 5.93125 24.25 8C24.25 10.0687 25.9313 11.75 28 11.75C30.0687 11.75 31.75 10.0687 31.75 8C31.75 5.93125 30.0687 4.25 28 4.25Z" fill="#9496A1"/>
<path d="M27.375 29.875C25.65 29.875 24.25 28.475 24.25 26.75C24.25 25.025 25.65 23.625 27.375 23.625C29.1 23.625 30.5 25.025 30.5 26.75C30.5 28.475 29.1 29.875 27.375 29.875ZM27.375 24.875C26.3438 24.875 25.5 25.7188 25.5 26.75C25.5 27.7812 26.3438 28.625 27.375 28.625C28.4062 28.625 29.25 27.7812 29.25 26.75C29.25 25.7188 28.4062 24.875 27.375 24.875Z" fill="#9496A1"/>
<path d="M9.875 11.75C7.80625 11.75 6.125 10.0687 6.125 8C6.125 5.93125 7.80625 4.25 9.875 4.25C11.9437 4.25 13.625 5.93125 13.625 8C13.625 10.0687 11.9437 11.75 9.875 11.75ZM9.875 5.5C8.49375 5.5 7.375 6.61875 7.375 8C7.375 9.38125 8.49375 10.5 9.875 10.5C11.2562 10.5 12.375 9.38125 12.375 8C12.375 6.61875 11.2562 5.5 9.875 5.5Z" fill="#9496A1"/>
<path d="M24.6142 10.845L21.0754 14.7988L22.0068 15.6325L25.5456 11.6787L24.6142 10.845Z" fill="#9496A1"/>
<path d="M22.8798 22.9036L22.1716 23.9336L24.9578 25.8492L25.666 24.8192L22.8798 22.9036Z" fill="#9496A1"/>
<path d="M12.0668 10.307L11.01 10.9746L13.5034 14.9218L14.5602 14.2542L12.0668 10.307Z" fill="#9496A1"/>
<path d="M19.9313 26.2629L19.4688 25.1004C21.6188 24.2379 23.0063 22.1879 23.0063 19.8754C23.0063 16.7754 20.4813 14.2504 17.3813 14.2504C15.7625 14.2504 14.2188 14.9504 13.15 16.1691L12.2125 15.3441C13.5188 13.8504 15.4063 12.9941 17.3875 12.9941C21.1813 12.9941 24.2625 16.0754 24.2625 19.8691C24.2625 22.6941 22.5688 25.2004 19.9438 26.2566L19.9313 26.2629Z" fill="#9496A1"/>
</g>
</g>
<defs>
<clipPath id="clip0_2223_11042">
<rect width="36" height="36" fill="white"/>
</clipPath>
<clipPath id="clip1_2223_11042">
<rect width="30" height="30" fill="white" transform="translate(3 3)"/>
</clipPath>
</defs>
</svg>
