<svg width="36" height="36" viewBox="0 0 36 36" fill="none" xmlns="http://www.w3.org/2000/svg">
<g clip-path="url(#clip0_2223_11057)">
<path d="M16.3147 21.563C15.6021 21.563 14.9717 21.4808 14.4646 21.378C14.0535 21.2958 13.6835 21.0628 13.4368 20.7202L10.0794 16.0952C9.95602 15.9239 9.91491 15.6977 9.97657 15.4922C10.0382 15.2866 10.1958 15.1222 10.3945 15.0468L11.5183 14.6357C11.7581 14.5466 12.0185 14.6014 12.2103 14.7659C12.224 14.7796 13.9028 16.2527 15.8693 16.6776L19.8023 15.2455L16.8012 12.1827C16.6367 12.0182 16.5682 11.7784 16.623 11.5523C16.6778 11.3262 16.8354 11.1412 17.0547 11.0589L18.3017 10.6067C18.843 10.408 19.4529 10.4423 19.9805 10.6958L25.2565 13.2653L28.9703 11.9154C30.5188 11.3536 31.3753 11.6619 32.0674 11.9086C32.2181 11.9634 32.3552 12.0114 32.5059 12.0525L33.1774 12.2169C33.7941 12.3677 34.26 12.8405 34.4039 13.4571C34.5478 14.0738 34.3285 14.7042 33.842 15.1085L33.3281 15.5333C32.7526 16.0129 32.1016 16.3829 31.3959 16.6433L19.3227 21.0286C18.2469 21.4191 17.2123 21.5493 16.3078 21.5493L16.3147 21.563ZM11.902 16.2802L14.5468 19.9186C14.588 19.9802 14.6565 20.0213 14.7319 20.035C15.7117 20.2338 17.226 20.3434 18.8567 19.7473L30.9299 15.362C31.485 15.1564 31.9989 14.8618 32.4579 14.4849L32.9718 14.0601C33.0883 13.9642 33.0815 13.8409 33.0678 13.7723C33.0541 13.7107 33.0061 13.5942 32.8554 13.5531L32.1839 13.3886C31.9851 13.3407 31.8001 13.2721 31.6083 13.2036C31.0259 12.9981 30.5257 12.8131 29.4431 13.2036L25.4621 14.6494C25.2839 14.7111 25.0921 14.7042 24.9276 14.622L19.3912 11.9291C19.2062 11.8401 18.9801 11.8264 18.7814 11.8949L18.5347 11.984L22.6527 16.1911L21.6729 17.1504L20.8575 16.3213L16.1571 18.0274C16.0406 18.0685 15.9172 18.0822 15.8008 18.0548C14.1426 17.7465 12.6831 16.8283 11.902 16.2596V16.2802Z" fill="#9496A1"/>
<path d="M5.96818 23.5579C3.93314 23.5579 2.15162 23.1468 1.67198 21.8312C1.31568 20.8582 1.78847 19.7208 3.07664 18.4395L4.04277 19.4124C3.22053 20.2278 2.81627 20.9541 2.96016 21.3584C3.2685 22.1943 6.35874 22.7356 12.2857 21.2967L12.6078 22.626C11.3401 22.9344 8.46915 23.551 5.97503 23.551L5.96818 23.5579Z" fill="#9496A1"/>
<path d="M16.7189 29.9907C11.8129 29.9907 7.19461 26.9621 5.41995 22.1041C4.32363 19.096 4.46752 15.8413 5.81737 12.943C7.17406 10.0377 9.57911 7.83138 12.594 6.73506C17.5822 4.91928 23.0844 6.5432 26.2774 10.7709L25.1879 11.6C22.3581 7.85878 17.4794 6.41987 13.0599 8.03008C10.3876 9.00306 8.25667 10.9559 7.05757 13.5254C5.85848 16.0949 5.73514 18.9796 6.70812 21.6381C8.71575 27.1403 14.8346 29.9838 20.3436 27.9831C24.0985 26.6195 26.7502 23.31 27.2572 19.3427L28.6139 19.5209C28.0384 23.9952 25.044 27.7295 20.8095 29.2712C19.4597 29.7646 18.0756 29.9975 16.712 29.9975L16.7189 29.9907Z" fill="#9496A1"/>
</g>
<defs>
<clipPath id="clip0_2223_11057">
<rect width="36" height="36" fill="white"/>
</clipPath>
</defs>
</svg>
