<svg width="36" height="36" viewBox="0 0 36 36" fill="none" xmlns="http://www.w3.org/2000/svg">
<g clip-path="url(#clip0_2223_11065)">
<path d="M21.3877 9.30664H8.06698C6.92537 9.30664 5.99988 10.232 5.99988 11.3735V27.931C5.99988 29.0725 6.92537 29.9979 8.06698 29.9979H24.6266C25.7682 29.9979 26.6937 29.0725 26.6937 27.931V18.7741" stroke="#9496A1" stroke-width="1.4" stroke-miterlimit="10" stroke-linejoin="round"/>
<path d="M19.1917 9.30664V15.4716L16.3468 14.5912L13.502 15.4716V9.30664" stroke="#9496A1" stroke-width="1.4" stroke-miterlimit="10" stroke-linejoin="round"/>
<path d="M8.97119 25.8555H12.2608" stroke="#9496A1" stroke-width="1.4" stroke-miterlimit="10" stroke-linecap="round" stroke-linejoin="round"/>
<path d="M8.97119 22.8887H15.5504" stroke="#9496A1" stroke-width="1.4" stroke-miterlimit="10" stroke-linecap="round" stroke-linejoin="round"/>
<path d="M24.1827 14.0039V19.8501L26.717 18.7637L29.2045 19.8501V14.0039" stroke="#9496A1" stroke-width="1.4" stroke-miterlimit="10" stroke-linejoin="round"/>
<path d="M26.6937 14.6109C29.6242 14.6109 31.9998 12.2356 31.9998 9.30546C31.9998 6.37533 29.6242 4 26.6937 4C23.7632 4 21.3876 6.37533 21.3876 9.30546C21.3876 12.2356 23.7632 14.6109 26.6937 14.6109Z" stroke="#9496A1" stroke-width="1.4" stroke-miterlimit="10" stroke-linejoin="round"/>
<path d="M25.0734 9.01526L26.3263 10.2681L28.46 8.13477" stroke="#9496A1" stroke-width="1.4" stroke-miterlimit="10" stroke-linecap="round" stroke-linejoin="round"/>
</g>
<defs>
<clipPath id="clip0_2223_11065">
<rect width="36" height="36" fill="white"/>
</clipPath>
</defs>
</svg>
