<svg width="36" height="36" viewBox="0 0 36 36" fill="none" xmlns="http://www.w3.org/2000/svg">
<g clip-path="url(#clip0_2223_11082)">
<path d="M28.6009 27.4178C28.6009 29.1967 27.1587 30.6389 25.3798 30.6389C23.8433 30.6389 22.5383 29.5569 22.2281 28.0849H16.8389C16.5287 29.5572 15.2233 30.6389 13.6869 30.6389C11.908 30.6389 10.4661 29.1967 10.4661 27.4178C10.4661 25.8373 11.6093 24.5052 13.1392 24.2433H9.91542C9.54701 24.2433 9.24838 23.9444 9.24838 23.5763V9.21646L5.86355 7.06254C5.12639 6.59293 5.83974 5.47215 6.57755 5.94209L10.2723 8.29311C10.4707 8.41978 10.5795 8.63408 10.5795 8.85334H10.5825V22.9092H29.7882C30.6662 22.9092 30.6662 24.2433 29.7882 24.2433H25.9275C27.4573 24.5052 28.6009 25.8373 28.6009 27.4178ZM22.0118 8.6063V6.69346H17.328V8.6063H22.0118ZM15.9939 8.6063V6.02642C15.9939 5.65801 16.2925 5.35938 16.6609 5.35938H22.6789C23.0473 5.35938 23.3459 5.65801 23.3459 6.02642V8.6063C24.5917 8.6063 25.5991 8.46343 26.5661 9.43043C27.0747 9.93906 27.3905 10.6415 27.3905 11.4144V18.6639C27.3905 20.21 26.1282 21.4723 24.5821 21.4723H14.7577C13.2116 21.4723 11.9496 20.21 11.9496 18.6639V11.4144C11.9496 9.86829 13.2116 8.6063 14.7577 8.6063H15.9939ZM13.2834 15.3938H15.5696C16.4476 15.3938 16.4476 16.7279 15.5696 16.7279H13.2834V18.6639C13.2834 19.4735 13.9481 20.1382 14.7577 20.1382H24.5821C25.3917 20.1382 26.0564 19.4735 26.0564 18.6639V11.4144C26.0564 10.6051 25.3917 9.94039 24.5821 9.94039C21.3074 9.94039 18.0324 9.94039 14.7577 9.94039C13.9484 9.94039 13.2834 10.6051 13.2834 11.4144V12.2729H17.4308C18.3089 12.2729 18.3089 13.607 17.4308 13.607H13.2834V15.3938ZM22.2281 26.7508C22.4987 25.4656 23.5341 24.4656 24.8322 24.2433H14.2345C15.5329 24.4656 16.568 25.4656 16.8389 26.7508H22.2281ZM25.3798 25.5308C24.3377 25.5308 23.4928 26.3757 23.4928 27.4178C23.4928 28.4599 24.3377 29.3049 25.3798 29.3049C26.4222 29.3049 27.2672 28.4602 27.2672 27.4178C27.2672 26.3757 26.4222 25.5308 25.3798 25.5308ZM13.6869 25.5308C12.6448 25.5308 11.7998 26.3757 11.7998 27.4178C11.7998 28.4599 12.6448 29.3049 13.6869 29.3049C14.7293 29.3049 15.5739 28.4602 15.5739 27.4178C15.5739 26.3757 14.7293 25.5308 13.6869 25.5308Z" fill="#9496A1"/>
</g>
<defs>
<clipPath id="clip0_2223_11082">
<rect width="36" height="36" fill="white"/>
</clipPath>
</defs>
</svg>
