<svg width="28" height="35" viewBox="0 0 28 35" fill="none" xmlns="http://www.w3.org/2000/svg">
<g clip-path="url(#clip0_2223_10700)">
<path d="M14 34.9998C13.9092 34.9998 13.8284 34.9795 13.7376 34.9491L13.354 34.7866C5.24874 31.2846 0 23.2452 0 14.3023V5.5726C0 5.19702 0.302812 4.90265 0.666186 4.90265C4.68349 4.90265 13.5963 0.131768 13.6871 0.0810139C13.889 -0.0204942 14.1211 -0.0204942 14.323 0.0810139C14.4138 0.131768 23.3266 4.90265 27.3338 4.90265C27.7073 4.90265 28 5.20717 28 5.5726V14.3023C28 23.2553 22.7513 31.2948 14.6359 34.7866L14.2523 34.9491C14.1716 34.9795 14.0807 34.9998 13.9899 34.9998H14ZM1.34247 6.2121V14.3023C1.34247 22.7072 6.2682 30.2695 13.889 33.5482L14 33.599L14.111 33.5482C21.7318 30.2695 26.6575 22.7072 26.6575 14.3023V6.2121C22.5696 5.82637 15.5847 2.26344 14 1.43107C12.4153 2.26344 5.43043 5.82637 1.34247 6.2121Z" fill="white"/>
<path d="M16.2408 28.2397C16.0692 28.2397 15.8875 28.1687 15.7563 28.0367C15.504 27.7728 15.514 27.3465 15.7765 27.0826C19.2588 23.7328 21.6107 19.51 22.5797 14.861C22.6604 14.4955 23.0137 14.2621 23.367 14.3433C23.7303 14.4245 23.9625 14.7798 23.8817 15.135C22.8522 20.048 20.3691 24.5042 16.695 28.0469C16.5638 28.1687 16.4023 28.2296 16.2307 28.2296L16.2408 28.2397Z" fill="white"/>
</g>
<defs>
<clipPath id="clip0_2223_10700">
<rect width="28" height="35" fill="white"/>
</clipPath>
</defs>
</svg>
