<svg width="31" height="44" viewBox="0 0 31 44" fill="none" xmlns="http://www.w3.org/2000/svg">
<path d="M13.7241 1V2.27258" stroke="white" stroke-width="1.3" stroke-linecap="round" stroke-linejoin="round"/>
<path d="M6.72498 2.9082L7.99755 4.18078" stroke="white" stroke-width="1.3" stroke-linecap="round" stroke-linejoin="round"/>
<path d="M2.27087 7.36328L3.54345 8.63586" stroke="white" stroke-width="1.3" stroke-linecap="round" stroke-linejoin="round"/>
<path d="M21.3596 2.9082L20.087 4.18078" stroke="white" stroke-width="1.3" stroke-linecap="round" stroke-linejoin="round"/>
<path d="M25.8137 7.36328L24.5411 8.63586" stroke="white" stroke-width="1.3" stroke-linecap="round" stroke-linejoin="round"/>
<path d="M18.8144 27.7246H13.7241" stroke="white" stroke-width="1.3" stroke-linecap="round" stroke-linejoin="round"/>
<path d="M15.6329 10.5439V12.4528" stroke="white" stroke-width="1.3" stroke-linecap="round" stroke-linejoin="round"/>
<path d="M11.8154 10.5439V12.4528" stroke="white" stroke-width="1.3" stroke-linecap="round" stroke-linejoin="round"/>
<path d="M17.1434 15.3936C17.1434 15.3936 13.4294 17.7585 10.2565 15.3936" stroke="white" stroke-width="1.5" stroke-linecap="round" stroke-linejoin="round"/>
<path d="M20.3418 43.0181C20.3418 43.0181 19.9459 40.0069 20.1835 37.6295C20.1835 37.6295 20.1835 37.0745 23.4301 37.2333C26.2701 37.372 27.1716 37.1467 27.5641 31.9387C27.6697 30.5398 27.9507 29.2517 29.0707 28.4069C29.2979 28.2357 29.485 28.0565 29.5819 27.8819C29.9779 27.1686 27.894 24.8195 26.9139 23.0479C26.6862 22.6364 26.7556 21.78 26.9139 20.4329C27.0076 19.6366 26.7138 17.7602 25.8036 15.917" stroke="white" stroke-width="1.5" stroke-linecap="round" stroke-linejoin="round"/>
<path d="M1.33754 17.8193C-0.326168 24.0004 4.58413 27.9625 5.29683 30.1815C6.00954 32.4004 5.45514 39.77 3.00041 43.019" stroke="white" stroke-width="1.5" stroke-linecap="round" stroke-linejoin="round"/>
<path d="M22.0358 37.169C22.0358 37.169 17.3327 37.5503 15.6698 34.5391" stroke="white" stroke-width="1.5" stroke-linecap="round" stroke-linejoin="round"/>
<path d="M18.8839 30.1595V25.3546C18.8839 25.0184 18.7504 24.696 18.5129 24.4582C18.2753 24.2205 17.9531 24.0869 17.6171 24.0869H9.89128C9.55531 24.0869 9.23311 24.2205 8.99554 24.4582C8.75798 24.696 8.62451 25.0184 8.62451 25.3546V30.1595" stroke="white" stroke-width="1.5" stroke-linecap="round" stroke-linejoin="round"/>
<path d="M17.5897 24.0621H9.91932V23.383C9.91932 22.458 9.47903 21.5845 8.72616 21.048C6.51645 19.4735 5.07507 16.8893 5.07507 13.9677C5.07507 9.19628 8.91925 5.32329 13.6771 5.28158C18.4666 5.23954 22.4346 9.17492 22.4346 13.9677C22.4346 16.8864 20.9958 19.4686 18.7896 21.0434" stroke="white" stroke-width="1.5" stroke-linecap="round" stroke-linejoin="round"/>
</svg>
