<svg width="32" height="36" viewBox="0 0 32 36" fill="none" xmlns="http://www.w3.org/2000/svg">
<g clip-path="url(#clip0_2223_10737)">
<path d="M15.9946 36C11.6453 36 9.28577 26.7258 9.28577 17.9946C9.28577 9.26335 11.6453 0 15.9946 0C20.3439 0 22.7034 9.27421 22.7034 17.9946C22.7034 26.7149 20.3547 36 15.9946 36ZM15.9946 1.44434C13.5046 1.44434 10.7319 8.24253 10.7319 18.0054C10.7319 27.7683 13.5046 34.5665 15.9946 34.5665C18.4845 34.5665 21.2572 27.7683 21.2572 18.0054C21.2572 8.24253 18.4845 1.44434 15.9946 1.44434Z" fill="white"/>
<path d="M4.65379 28.8113C2.65311 28.8113 1.13086 28.2683 0.391474 26.9978C-0.576246 25.3254 0.260995 22.8385 2.7401 19.9715C5.0561 17.3 8.56816 14.5416 12.6456 12.1959C20.2134 7.83033 29.4339 5.23486 31.6086 8.99232C32.5763 10.6647 31.7391 13.1516 29.26 16.0186C26.944 18.6901 23.4319 21.4484 19.3544 23.7941C14.331 26.6828 8.58991 28.8113 4.65379 28.8113ZM27.3463 8.64481C24.193 8.64481 19.05 10.176 13.3741 13.4448C9.43803 15.7145 6.05644 18.3643 3.8383 20.9163C1.84849 23.2077 1.033 25.2059 1.6419 26.2702C2.88145 28.4204 10.1665 27.4213 18.6368 22.5453C22.5729 20.2756 25.9545 17.6258 28.1726 15.0738C30.1625 12.7824 30.9779 10.7842 30.369 9.71992C29.9559 9.01404 28.9012 8.64481 27.3572 8.64481H27.3463Z" fill="white"/>
<path d="M27.3463 28.8112C23.4102 28.8112 17.6691 26.6935 12.6456 23.794C8.57904 21.4483 5.0561 18.6899 2.7401 16.0184C0.260995 13.1623 -0.576246 10.6645 0.391474 9.00301C2.56613 5.23468 11.7866 7.84102 19.3544 12.2066C23.421 14.5523 26.944 17.3107 29.26 19.9822C31.7391 22.8383 32.5763 25.336 31.6086 27.0084C30.8801 28.279 29.347 28.822 27.3463 28.822V28.8112ZM4.65379 8.64464C3.10979 8.64464 2.04421 9.01387 1.6419 9.71975C1.02212 10.784 1.84849 12.7822 3.8383 15.0736C6.05644 17.6256 9.43803 20.2754 13.3741 22.5451C21.8335 27.4211 29.1186 28.4311 30.369 26.27C30.9888 25.2057 30.1625 23.2075 28.1726 20.9161C25.9545 18.3641 22.5729 15.7143 18.6368 13.4446C12.961 10.165 7.80704 8.64464 4.66466 8.64464H4.65379Z" fill="white"/>
<path d="M15.9946 21.0353C14.3201 21.0353 12.9609 19.6778 12.9609 18.0055C12.9609 16.3331 14.3201 14.9756 15.9946 14.9756C17.6691 14.9756 19.0282 16.3331 19.0282 18.0055C19.0282 19.6778 17.6691 21.0353 15.9946 21.0353ZM15.9946 16.4091C15.1138 16.4091 14.4071 17.1258 14.4071 17.9946C14.4071 18.8634 15.1247 19.5801 15.9946 19.5801C16.8644 19.5801 17.5821 18.8634 17.5821 17.9946C17.5821 17.1258 16.8644 16.4091 15.9946 16.4091Z" fill="white"/>
</g>
<defs>
<clipPath id="clip0_2223_10737">
<rect width="32" height="36" fill="white"/>
</clipPath>
</defs>
</svg>
