<svg width="28" height="35" viewBox="0 0 28 35" fill="none" xmlns="http://www.w3.org/2000/svg">
<g clip-path="url(#clip0_2223_10707)">
<path d="M6.39 23.5495C2.86 23.5495 0 20.6795 0 17.1595C0 13.6395 2.87 10.7695 6.39 10.7695C9.91 10.7695 12.78 13.6395 12.78 17.1595C12.78 20.6795 9.91 23.5495 6.39 23.5495ZM6.39 12.0795C3.6 12.0795 1.32 14.3495 1.32 17.1495C1.32 19.9495 3.59 22.2195 6.39 22.2195C9.19 22.2195 11.46 19.9495 11.46 17.1495C11.46 14.3495 9.19 12.0795 6.39 12.0795Z" fill="white"/>
<path d="M22.65 34.4799C20.07 34.4799 17.98 32.3799 17.98 29.8099C17.98 27.2399 20.08 25.1299 22.65 25.1299C25.22 25.1299 27.32 27.2299 27.32 29.8099C27.32 32.3899 25.22 34.4799 22.65 34.4799ZM22.65 26.4499C20.8 26.4499 19.3 27.9499 19.3 29.7999C19.3 31.6499 20.8 33.1499 22.65 33.1499C24.5 33.1499 26 31.6499 26 29.7999C26 27.9499 24.5 26.4499 22.65 26.4499Z" fill="white"/>
<path d="M22.65 9.35C20.07 9.35 17.98 7.25 17.98 4.67C17.98 2.09 20.07 0 22.65 0C25.23 0 27.32 2.1 27.32 4.68C27.32 7.26 25.22 9.36 22.65 9.36V9.35ZM22.65 1.33C20.8 1.33 19.3 2.83 19.3 4.68C19.3 6.53 20.8 8.03 22.65 8.03C24.5 8.03 26 6.53 26 4.68C26 2.83 24.5 1.33 22.65 1.33Z" fill="white"/>
<path d="M10.45 13.7597C10.22 13.7597 9.99998 13.6397 9.87998 13.4397C9.68998 13.1297 9.78998 12.7197 10.11 12.5297L19.47 6.93973C19.78 6.74973 20.19 6.84973 20.38 7.16973C20.57 7.47973 20.47 7.88973 20.15 8.07973L10.79 13.6697C10.68 13.7297 10.57 13.7597 10.45 13.7597Z" fill="white"/>
<path d="M19.81 27.4596C19.69 27.4596 19.58 27.4296 19.47 27.3696L10.11 21.7796C9.80002 21.5896 9.69002 21.1896 9.88002 20.8696C10.07 20.5596 10.47 20.4496 10.79 20.6396L20.15 26.2296C20.46 26.4196 20.57 26.8196 20.38 27.1396C20.26 27.3496 20.04 27.4596 19.81 27.4596Z" fill="white"/>
</g>
<defs>
<clipPath id="clip0_2223_10707">
<rect width="27.32" height="34.48" fill="white"/>
</clipPath>
</defs>
</svg>
