<svg width="30" height="30" viewBox="0 0 30 30" fill="none" xmlns="http://www.w3.org/2000/svg">
<circle cx="15" cy="15" r="15" fill="#F3F4F8"/>
<path d="M15.0312 21.2656C11.6094 16.3438 11 15.8281 11 14C11 11.5156 12.9922 9.5 15.5 9.5C17.9844 9.5 20 11.5156 20 14C20 15.8281 19.3672 16.3438 15.9453 21.2656C15.7344 21.5938 15.2422 21.5938 15.0312 21.2656ZM15.5 15.875C16.5312 15.875 17.375 15.0547 17.375 14C17.375 12.9688 16.5312 12.125 15.5 12.125C14.4453 12.125 13.625 12.9688 13.625 14C13.625 15.0547 14.4453 15.875 15.5 15.875Z" fill="#777986"/>
</svg>
