<svg width="30" height="30" viewBox="0 0 30 30" fill="none" xmlns="http://www.w3.org/2000/svg">
<circle cx="15" cy="15" r="15" fill="#F3F4F8"/>
<path d="M20.7656 13.9766C20.8594 13.9062 21 13.9766 21 14.0938V18.875C21 19.5078 20.4844 20 19.875 20H10.125C9.49219 20 9 19.5078 9 18.875V14.0938C9 13.9766 9.11719 13.9062 9.21094 13.9766C9.75 14.3984 10.4297 14.9141 12.8203 16.6484C13.3125 17 14.1562 17.7734 15 17.7734C15.8203 17.7734 16.6875 17 17.1562 16.6484C19.5469 14.9141 20.2266 14.3984 20.7656 13.9766ZM15 17C14.4375 17.0234 13.6641 16.3203 13.2656 16.0391C10.1484 13.7891 9.91406 13.5781 9.21094 13.0156C9.07031 12.9219 9 12.7578 9 12.5703V12.125C9 11.5156 9.49219 11 10.125 11H19.875C20.4844 11 21 11.5156 21 12.125V12.5703C21 12.7578 20.9062 12.9219 20.7656 13.0156C20.0625 13.5781 19.8281 13.7891 16.7109 16.0391C16.3125 16.3203 15.5391 17.0234 15 17Z" fill="#777986"/>
</svg>
