<svg width="30" height="30" viewBox="0 0 30 30" fill="none" xmlns="http://www.w3.org/2000/svg">
<circle cx="15" cy="15" r="15" fill="#F3F4F8"/>
<path d="M20.5547 9.08835C20.8125 9.15866 21 9.3696 21 9.62741C21 15.6509 16.125 20.5024 10.125 20.5024C9.84373 20.5024 9.63279 20.3384 9.56248 20.0805L8.99998 17.643C8.95311 17.3852 9.07029 17.104 9.32811 16.9868L11.9531 15.8618C12.1875 15.768 12.4453 15.8384 12.6094 16.0259L13.7812 17.4555C15.6094 16.5884 17.0859 15.0884 17.9297 13.3071L16.5 12.1352C16.3125 11.9712 16.2422 11.7134 16.3359 11.479L17.4609 8.85398C17.5781 8.59616 17.8594 8.45554 18.1172 8.52585L20.5547 9.08835Z" fill="#777986"/>
</svg>
