<svg width="30" height="30" viewBox="0 0 30 30" fill="none" xmlns="http://www.w3.org/2000/svg">
<circle cx="15" cy="15" r="15" fill="#F3F4F8"/>
<path d="M20.25 12.25C20.6484 12.25 21 12.6016 21 13V19.75C21 20.1719 20.6484 20.5 20.25 20.5H12.75C12.3281 20.5 12 20.1719 12 19.75V9.25C12 8.85156 12.3281 8.5 12.75 8.5H18.4219C18.6328 8.52344 18.8203 8.59375 18.9609 8.73438L20.0156 9.78906C20.1562 9.92969 20.2266 10.1172 20.25 10.3281V12.25ZM15.75 18.625V17.875C15.75 17.6875 15.5625 17.5 15.375 17.5H14.625C14.4141 17.5 14.25 17.6875 14.25 17.875V18.625C14.25 18.8359 14.4141 19 14.625 19H15.375C15.5625 19 15.75 18.8359 15.75 18.625ZM15.75 15.625V14.875C15.75 14.6875 15.5625 14.5 15.375 14.5H14.625C14.4141 14.5 14.25 14.6875 14.25 14.875V15.625C14.25 15.8359 14.4141 16 14.625 16H15.375C15.5625 16 15.75 15.8359 15.75 15.625ZM18.75 18.625V17.875C18.75 17.6875 18.5625 17.5 18.375 17.5H17.625C17.4141 17.5 17.25 17.6875 17.25 17.875V18.625C17.25 18.8359 17.4141 19 17.625 19H18.375C18.5625 19 18.75 18.8359 18.75 18.625ZM18.75 15.625V14.875C18.75 14.6875 18.5625 14.5 18.375 14.5H17.625C17.4141 14.5 17.25 14.6875 17.25 14.875V15.625C17.25 15.8359 17.4141 16 17.625 16H18.375C18.5625 16 18.75 15.8359 18.75 15.625ZM18.75 13V11.5H17.625C17.4141 11.5 17.25 11.3359 17.25 11.125V10H13.5V13H18.75ZM10.5 11.5C10.8984 11.5 11.25 11.8516 11.25 12.25V19.75C11.25 20.1719 10.8984 20.5 10.5 20.5H9.75C9.32812 20.5 9 20.1719 9 19.75V12.25C9 11.8516 9.32812 11.5 9.75 11.5H10.5Z" fill="#777986"/>
</svg>
