<svg width="62" height="62" viewBox="0 0 62 62" fill="none" xmlns="http://www.w3.org/2000/svg">
<circle cx="31" cy="31" r="30" fill="#9E0C1B" stroke="white" stroke-width="2"/>
<path d="M10.385 42.15C10.385 41.3947 10.5537 40.72 10.891 40.126C11.2357 39.5247 11.7013 39.059 12.288 38.729C12.882 38.3917 13.5457 38.223 14.279 38.223C15.137 38.223 15.8887 38.443 16.534 38.883C17.1793 39.323 17.6303 39.9317 17.887 40.709H16.116C15.94 40.3423 15.6907 40.0673 15.368 39.884C15.0527 39.7007 14.686 39.609 14.268 39.609C13.8207 39.609 13.421 39.7153 13.069 39.928C12.7243 40.1333 12.453 40.4267 12.255 40.808C12.0643 41.1893 11.969 41.6367 11.969 42.15C11.969 42.656 12.0643 43.1033 12.255 43.492C12.453 43.8733 12.7243 44.1703 13.069 44.383C13.421 44.5883 13.8207 44.691 14.268 44.691C14.686 44.691 15.0527 44.5993 15.368 44.416C15.6907 44.2253 15.94 43.9467 16.116 43.58H17.887C17.6303 44.3647 17.1793 44.977 16.534 45.417C15.896 45.8497 15.1443 46.066 14.279 46.066C13.5457 46.066 12.882 45.901 12.288 45.571C11.7013 45.2337 11.2357 44.768 10.891 44.174C10.5537 43.58 10.385 42.9053 10.385 42.15ZM21.3584 46.099C20.7717 46.099 20.2437 45.9707 19.7744 45.714C19.305 45.45 18.9347 45.0797 18.6634 44.603C18.3994 44.1263 18.2674 43.5763 18.2674 42.953C18.2674 42.3297 18.403 41.7797 18.6744 41.303C18.953 40.8263 19.3307 40.4597 19.8074 40.203C20.284 39.939 20.8157 39.807 21.4024 39.807C21.989 39.807 22.5207 39.939 22.9974 40.203C23.474 40.4597 23.848 40.8263 24.1194 41.303C24.398 41.7797 24.5374 42.3297 24.5374 42.953C24.5374 43.5763 24.3944 44.1263 24.1084 44.603C23.8297 45.0797 23.4484 45.45 22.9644 45.714C22.4877 45.9707 21.9524 46.099 21.3584 46.099ZM21.3584 44.757C21.637 44.757 21.8974 44.691 22.1394 44.559C22.3887 44.4197 22.5867 44.2143 22.7334 43.943C22.88 43.6717 22.9534 43.3417 22.9534 42.953C22.9534 42.3737 22.7994 41.93 22.4914 41.622C22.1907 41.3067 21.8204 41.149 21.3804 41.149C20.9404 41.149 20.57 41.3067 20.2694 41.622C19.976 41.93 19.8294 42.3737 19.8294 42.953C19.8294 43.5323 19.9724 43.9797 20.2584 44.295C20.5517 44.603 20.9184 44.757 21.3584 44.757ZM28.494 39.818C29.22 39.818 29.8067 40.049 30.254 40.511C30.7013 40.9657 30.925 41.6037 30.925 42.425V46H29.385V42.634C29.385 42.15 29.264 41.7797 29.022 41.523C28.78 41.259 28.45 41.127 28.032 41.127C27.6067 41.127 27.2693 41.259 27.02 41.523C26.778 41.7797 26.657 42.15 26.657 42.634V46H25.117V39.906H26.657V40.665C26.8623 40.401 27.1227 40.1957 27.438 40.049C27.7607 39.895 28.1127 39.818 28.494 39.818ZM33.6325 41.171V44.119C33.6325 44.3243 33.6801 44.4747 33.7755 44.57C33.8781 44.658 34.0468 44.702 34.2815 44.702H34.9965V46H34.0285C32.7305 46 32.0815 45.3693 32.0815 44.108V41.171H31.3555V39.906H32.0815V38.399H33.6325V39.906H34.9965V41.171H33.6325ZM35.1581 42.931C35.1581 42.315 35.2791 41.7687 35.5211 41.292C35.7704 40.8153 36.1041 40.4487 36.5221 40.192C36.9474 39.9353 37.4204 39.807 37.9411 39.807C38.3958 39.807 38.7918 39.8987 39.1291 40.082C39.4738 40.2653 39.7488 40.4963 39.9541 40.775V39.906H41.5051V46H39.9541V45.109C39.7561 45.395 39.4811 45.6333 39.1291 45.824C38.7844 46.0073 38.3848 46.099 37.9301 46.099C37.4168 46.099 36.9474 45.967 36.5221 45.703C36.1041 45.439 35.7704 45.0687 35.5211 44.592C35.2791 44.108 35.1581 43.5543 35.1581 42.931ZM39.9541 42.953C39.9541 42.579 39.8808 42.26 39.7341 41.996C39.5875 41.7247 39.3894 41.5193 39.1401 41.38C38.8908 41.2333 38.6231 41.16 38.3371 41.16C38.0511 41.16 37.7871 41.2297 37.5451 41.369C37.3031 41.5083 37.1051 41.7137 36.9511 41.985C36.8044 42.249 36.7311 42.5643 36.7311 42.931C36.7311 43.2977 36.8044 43.6203 36.9511 43.899C37.1051 44.1703 37.3031 44.3793 37.5451 44.526C37.7944 44.6727 38.0584 44.746 38.3371 44.746C38.6231 44.746 38.8908 44.6763 39.1401 44.537C39.3894 44.3903 39.5875 44.185 39.7341 43.921C39.8808 43.6497 39.9541 43.327 39.9541 42.953ZM42.0632 42.953C42.0632 42.3223 42.1915 41.7723 42.4482 41.303C42.7049 40.8263 43.0605 40.4597 43.5152 40.203C43.9699 39.939 44.4905 39.807 45.0772 39.807C45.8325 39.807 46.4559 39.9977 46.9472 40.379C47.4459 40.753 47.7795 41.281 47.9482 41.963H46.2872C46.1992 41.699 46.0489 41.4937 45.8362 41.347C45.6309 41.193 45.3742 41.116 45.0662 41.116C44.6262 41.116 44.2779 41.2773 44.0212 41.6C43.7645 41.9153 43.6362 42.3663 43.6362 42.953C43.6362 43.5323 43.7645 43.9833 44.0212 44.306C44.2779 44.6213 44.6262 44.779 45.0662 44.779C45.6895 44.779 46.0965 44.5003 46.2872 43.943H47.9482C47.7795 44.603 47.4459 45.1273 46.9472 45.516C46.4485 45.9047 45.8252 46.099 45.0772 46.099C44.4905 46.099 43.9699 45.9707 43.5152 45.714C43.0605 45.45 42.7049 45.0833 42.4482 44.614C42.1915 44.1373 42.0632 43.5837 42.0632 42.953ZM50.3194 41.171V44.119C50.3194 44.3243 50.3671 44.4747 50.4624 44.57C50.5651 44.658 50.7337 44.702 50.9684 44.702H51.6834V46H50.7154C49.4174 46 48.7684 45.3693 48.7684 44.108V41.171H48.0424V39.906H48.7684V38.399H50.3194V39.906H51.6834V41.171H50.3194Z" fill="white"/>
<g clip-path="url(#clip0_2334_9239)">
<path d="M18.7805 35.7808C22.058 39.1843 26.4623 41.1057 31.1824 41.191C31.2916 41.193 31.4006 41.1938 31.5095 41.1938C36.1086 41.1938 40.4516 39.439 43.7707 36.2319C47.1684 32.9487 49.0864 28.5367 49.1716 23.8084C49.2566 19.0802 47.4985 14.6018 44.2211 11.1982C40.9436 7.79462 36.5392 5.87325 31.8192 5.78795C22.0787 5.61588 14.0057 13.4099 13.8301 23.1705C13.745 27.8988 15.5031 32.3772 18.7805 35.7808ZM15.4125 23.1991C15.5706 14.4107 22.7574 7.37056 31.4965 7.37056C31.5942 7.37056 31.6927 7.37151 31.7907 7.3732C36.0881 7.45068 40.0979 9.20008 43.0819 12.2989C46.0658 15.3976 47.6665 19.4751 47.5891 23.7799C47.5232 27.4418 46.2491 30.8949 43.966 33.6848C43.5077 30.1883 41.6013 27.0069 38.671 24.9595L37.7655 26.2598C40.7073 28.3155 42.4698 31.6768 42.4906 35.2619C39.4926 38.0727 35.6133 39.6086 31.5089 39.6084C31.41 39.6084 31.3102 39.6075 31.2111 39.6057C27.0361 39.5304 23.2566 37.86 20.4414 35.1866C20.4862 31.6298 22.2441 28.301 25.1653 26.2598L24.2597 24.9595C21.354 26.9898 19.4554 30.1351 18.9769 33.597C16.6876 30.7557 15.3418 27.1268 15.4125 23.1991Z" fill="white"/>
<path d="M31.4651 26.8179C35.625 26.8179 39.0094 23.4276 39.0094 19.2605C39.0094 15.0934 35.625 11.7031 31.4651 11.7031C27.3053 11.7031 23.9209 15.0934 23.9209 19.2605C23.9209 23.4276 27.3052 26.8179 31.4651 26.8179ZM31.4651 13.2886C34.7523 13.2886 37.4267 15.9676 37.4267 19.2605C37.4267 22.5534 34.7523 25.2324 31.4651 25.2324C28.178 25.2324 25.5036 22.5534 25.5036 19.2605C25.5036 15.9676 28.1779 13.2886 31.4651 13.2886Z" fill="white"/>
<path d="M27.2451 31.1523H28.9333V32.7378H27.2451V31.1523Z" fill="white"/>
<path d="M30.6211 31.1523H32.3093V32.7378H30.6211V31.1523Z" fill="white"/>
<path d="M33.998 31.1523H35.6863V32.7378H33.998V31.1523Z" fill="white"/>
</g>
<defs>
<clipPath id="clip0_2334_9239">
<path d="M19 23.5C19 16.5964 24.5964 11 31.5 11V11C38.4036 11 44 16.5964 44 23.5V35H19V23.5Z" fill="white"/>
</clipPath>
</defs>
</svg>
