<svg width="36" height="36" viewBox="0 0 36 36" fill="none" xmlns="http://www.w3.org/2000/svg">
<g clip-path="url(#clip0_2223_12663)">
<g clip-path="url(#clip1_2223_12663)">
<path d="M30.7184 21.2607C30.3476 21.2949 30.074 21.6243 30.1091 21.9951C30.11 22.0041 30.1109 22.014 30.1127 22.023C30.1388 22.2471 30.1514 22.473 30.1505 22.6989C30.1496 26.0586 27.4262 28.7811 24.0665 28.7811C20.7068 28.7802 17.9843 26.0568 17.9843 22.6971C17.9852 19.3374 20.7086 16.6149 24.0683 16.6149C25.358 16.6149 26.6144 17.0253 27.6557 17.7858C27.959 18.0027 28.3802 17.9325 28.5971 17.6292C28.8104 17.3304 28.7465 16.9155 28.4522 16.6959C27.7988 16.2216 27.0725 15.8562 26.3012 15.6159V7.25039C26.2994 5.93459 25.232 4.86809 23.9162 4.86719H8.6162C7.2995 4.86809 6.233 5.93369 6.2312 7.25039V23.5917C6.233 24.9084 7.2995 25.974 8.6162 25.9749H17.402C19.2083 29.6586 23.6588 31.1805 27.3425 29.3742C29.8886 28.1259 31.5023 25.5357 31.5005 22.6998C31.5005 22.4226 31.4852 22.1463 31.4537 21.8709C31.4177 21.4992 31.0892 21.2265 30.7184 21.2607ZM13.82 6.21719H18.7034L18.6656 10.4472C18.6386 10.467 18.6026 10.467 18.5756 10.4472L17.0537 9.43649C16.5749 9.11969 15.953 9.11969 15.4742 9.43649L13.9505 10.4409L13.82 10.3743V6.21719ZM16.8863 24.6249H8.6153C8.0447 24.6249 7.5812 24.1623 7.5803 23.5917V7.25039C7.5812 6.67889 8.0438 6.21629 8.6153 6.21719H12.47V10.3707C12.47 11.1627 13.1108 11.8044 13.9028 11.8053C14.1836 11.8053 14.459 11.7225 14.6939 11.5677L16.2176 10.5633C16.2446 10.5453 16.2806 10.5453 16.3076 10.5633L17.8313 11.5677C18.4919 12.0042 19.3811 11.8224 19.8176 11.1618C19.9724 10.9269 20.0552 10.6524 20.0552 10.3707V6.21719H23.9153C24.4859 6.21809 24.9485 6.67979 24.9494 7.25039V15.3351C20.9525 14.7735 17.2571 17.5581 16.6955 21.555C16.6424 21.9339 16.619 22.3173 16.6253 22.6998C16.6271 23.3496 16.7153 23.9967 16.8863 24.6249Z" fill="#9496A1"/>
<path d="M32.5643 16.508C32.3024 16.2551 31.8884 16.2551 31.6265 16.508L31.6283 16.5026L24.4328 23.7026C24.3581 23.762 24.2528 23.762 24.179 23.7026L21.659 21.1826C21.3908 20.9234 20.9633 20.9315 20.705 21.1997C20.4521 21.4616 20.453 21.8765 20.705 22.1375L23.2205 24.6575C23.8172 25.2524 24.7838 25.2524 25.3805 24.6575L32.5805 17.4629C32.8397 17.1947 32.8316 16.7672 32.5643 16.508Z" fill="#9496A1"/>
<path d="M14.4519 20.2051H9.75752C9.38492 20.2051 9.08252 20.5075 9.08252 20.8801C9.08252 21.2527 9.38492 21.5551 9.75752 21.5551H14.4519C14.8245 21.5551 15.1269 21.2527 15.1269 20.8801C15.1269 20.5066 14.8245 20.2051 14.4519 20.2051Z" fill="#9496A1"/>
</g>
</g>
<defs>
<clipPath id="clip0_2223_12663">
<rect width="36" height="36" fill="white"/>
</clipPath>
<clipPath id="clip1_2223_12663">
<rect width="27" height="27" fill="white" transform="translate(6 4)"/>
</clipPath>
</defs>
</svg>
