<svg width="36" height="36" viewBox="0 0 36 36" fill="none" xmlns="http://www.w3.org/2000/svg">
<g clip-path="url(#clip0_2223_12672)">
<g clip-path="url(#clip1_2223_12672)">
<path d="M25.4163 16.7842C29.6251 16.7842 33.0499 20.2082 33.05 24.417C33.05 28.6259 29.6252 32.0508 25.4163 32.0508C21.2075 32.0506 17.7834 28.6258 17.7834 24.417C17.7836 20.2083 21.2076 16.7844 25.4163 16.7842ZM25.4163 18.0508C21.9056 18.051 19.0502 20.9064 19.05 24.417C19.05 27.9278 21.9055 30.784 25.4163 30.7842C28.9271 30.7842 31.7834 27.9279 31.7834 24.417C31.7833 20.9063 28.927 18.0508 25.4163 18.0508Z" fill="#9496A1" stroke="#9496A1" stroke-width="0.1"/>
<path d="M25.4163 20.2842C25.7658 20.2842 26.0499 20.5675 26.05 20.917V24.6963L28.7288 26.8398C29.001 27.0589 29.0452 27.4569 28.8274 27.7305C28.7031 27.8865 28.5179 27.9678 28.3333 27.9678C28.1952 27.9678 28.0542 27.9215 27.9377 27.8291L25.0217 25.4961H25.0208C24.8704 25.3748 24.7835 25.1935 24.7834 25.001V20.917C24.7836 20.5676 25.0669 20.2844 25.4163 20.2842Z" fill="#9496A1" stroke="#9496A1" stroke-width="0.1"/>
<path d="M27.542 9.52637C27.7199 9.46366 27.9191 9.48417 28.083 9.58594C28.2692 9.70119 28.3838 9.90579 28.3838 10.125V15.083C28.3838 15.4326 28.0996 15.7158 27.75 15.7158C27.4004 15.7158 27.1162 15.4326 27.1162 15.083V11.1494L16.957 16.2324C16.866 16.2779 16.7699 16.2998 16.6748 16.2998C16.442 16.2998 16.2189 16.1718 16.1074 15.9502C15.9517 15.6374 16.0786 15.2555 16.3916 15.0996L27.4668 9.55859L27.542 9.52637Z" fill="#9496A1" stroke="#9496A1" stroke-width="0.1"/>
<path d="M5.32227 9.54785C5.49464 9.46921 5.69542 9.47209 5.86621 9.55859L16.9424 15.0996V15.1006C17.2549 15.2577 17.3813 15.6374 17.2256 15.9502C17.0882 16.2237 16.7804 16.355 16.4961 16.2793L16.376 16.2334L6.2168 11.1494V20.543L16.3838 26.1963C16.651 26.3448 16.7691 26.6581 16.6807 26.9395L16.6299 27.0576C16.5134 27.2652 16.298 27.3828 16.0752 27.3828C15.9714 27.3828 15.8652 27.3572 15.7676 27.3027L5.27441 21.4697C5.07556 21.3583 4.9502 21.1465 4.9502 20.916V10.125C4.9502 9.90579 5.06382 9.70119 5.25 9.58594L5.32227 9.54785Z" fill="#9496A1" stroke="#9496A1" stroke-width="0.1"/>
<path d="M16.377 4.0166C16.5554 3.92801 16.7659 3.92788 16.9434 4.0166L28.0342 9.55859C28.3075 9.69606 28.439 10.0038 28.3633 10.2881L28.3174 10.4082C28.2059 10.6299 27.9816 10.7578 27.75 10.7578C27.6549 10.7578 27.5588 10.7359 27.4678 10.6904L16.6592 5.29004L5.86719 10.6904C5.55478 10.8447 5.1748 10.7212 5.01758 10.4082C4.86043 10.0952 4.98828 9.71557 5.30078 9.55859L16.377 4.0166Z" fill="#9496A1" stroke="#9496A1" stroke-width="0.1"/>
<path d="M21.7961 6.62207C22.0804 6.54629 22.3881 6.67686 22.5256 6.9502C22.6828 7.26327 22.555 7.64384 22.2424 7.80078L11.5168 13.167V17.1133C11.5168 17.463 11.2338 17.7461 10.8831 17.7461C10.5336 17.7459 10.2502 17.4618 10.2502 17.1123V12.7754C10.2502 12.5359 10.3859 12.3166 10.5999 12.209L21.676 6.66699L21.7961 6.62207Z" fill="#9496A1" stroke="#9496A1" stroke-width="0.1"/>
</g>
</g>
<defs>
<clipPath id="clip0_2223_12672">
<rect width="36" height="36" fill="white"/>
</clipPath>
<clipPath id="clip1_2223_12672">
<rect width="29" height="29" fill="white" transform="translate(5 4)"/>
</clipPath>
</defs>
</svg>
