<svg width="36" height="36" viewBox="0 0 36 36" fill="none" xmlns="http://www.w3.org/2000/svg">
<g clip-path="url(#clip0_2223_12683)">
<path d="M11.0098 15.1493V4.33008H29.6047V31.6687H18.6704V30.3286H28.2647V9.24775H12.3499V15.1493H11.0098ZM11.2059 17.3912L7.66699 20.7856H15.0531L11.5145 17.3912L12.4408 16.4278L16.9838 20.7856H18.3248V24.8338H17.0678V29.7608C17.0678 30.8098 16.2089 31.6687 15.1599 31.6687H7.5605C6.51115 31.6687 5.6523 30.8095 5.6523 29.7608V24.8338H4.39526V20.7856H5.7363L10.2793 16.4278L11.2059 17.3912ZM7.5605 30.3286H15.1599C15.4724 30.3286 15.7277 30.073 15.7277 29.7608V24.8338H6.99234V29.7608C6.99234 30.0733 7.24765 30.3286 7.5605 30.3286ZM16.9848 22.1257H5.73531V23.4938H16.9848V22.1257ZM19.1162 26.3515H27.0959V27.6915H19.1162V26.3515ZM19.1162 24.4899H27.0959V25.8299H19.1162V24.4899ZM19.1162 19.7627H27.0959V21.1028H19.1162V19.7627ZM19.1162 17.9008H27.0959V19.2409H19.1162V17.9008ZM19.1162 13.1736H27.0959V14.5137H19.1162V13.1736ZM19.1162 11.3117H27.0959V12.6518H19.1162V11.3117ZM13.9455 12.3548L14.9942 13.2229L17.4203 11.2181L18.2736 12.2493L14.9932 14.9598L13.0923 13.3859L13.9455 12.3548ZM28.2647 7.90771V5.67012H12.3499V7.90771H28.2647Z" fill="#9496A1"/>
</g>
<defs>
<clipPath id="clip0_2223_12683">
<rect width="36" height="36" fill="white"/>
</clipPath>
</defs>
</svg>
