<svg width="36" height="36" viewBox="0 0 36 36" fill="none" xmlns="http://www.w3.org/2000/svg">
<g clip-path="url(#clip0_2223_12690)">
<path d="M31.0667 29.1504H30.1334V18.5729H31.0667C31.4531 18.5729 31.7667 18.2593 31.7667 17.8729C31.7667 17.4865 31.4531 17.1729 31.0667 17.1729H29.5911L20.031 12.6201C20.2251 12.2785 20.3297 11.893 20.3334 11.5001C20.3334 11.1137 20.0198 10.8001 19.6334 10.8001C19.247 10.8001 18.9334 11.1137 18.9334 11.5001C18.9334 12.0153 18.5143 12.4334 17.9991 12.4325C17.4839 12.4325 17.0658 12.0134 17.0667 11.4982C17.0667 11.1212 17.2945 10.7805 17.6435 10.6368C18.2959 10.3577 18.7141 9.71091 18.7001 9.00157V7.67157C19.0286 7.44944 19.2274 7.08077 19.233 6.68411C19.233 6.00277 18.6814 5.45117 18.0001 5.45117C17.3187 5.45117 16.7671 6.00277 16.7671 6.68411C16.7727 7.08077 16.9715 7.44944 17.3001 7.67157V9.00157C17.3075 9.14064 17.2347 9.2713 17.1134 9.33851C16.0942 9.7557 15.5071 10.83 15.7069 11.9126C15.7526 12.1628 15.8403 12.4026 15.9654 12.6238L6.409 17.1729H4.9334C4.547 17.1729 4.2334 17.4865 4.2334 17.8729C4.2334 18.2593 4.547 18.5729 4.9334 18.5729H5.86673V29.1504H4.9334C4.547 29.1504 4.2334 29.464 4.2334 29.8504C4.2334 30.2368 4.547 30.5504 4.9334 30.5504H31.0667C31.4531 30.5504 31.7667 30.2368 31.7667 29.8504C31.7667 29.464 31.4531 29.1504 31.0667 29.1504ZM17.0901 13.6374C17.2478 13.7084 17.413 13.7597 17.5829 13.7924C17.7191 13.8157 17.8582 13.8278 17.9963 13.8278C18.3099 13.826 18.6198 13.7606 18.9082 13.6365L26.3357 17.1729H9.66446L17.0901 13.6374ZM28.7334 29.1504H7.26673V18.5729H28.7334V29.1504Z" fill="#9496A1"/>
<path d="M11.2483 27.4909C11.6347 27.4909 11.9483 27.1773 11.9483 26.7909V20.9305C11.9483 20.5441 11.6347 20.2305 11.2483 20.2305C10.8619 20.2305 10.5483 20.5441 10.5483 20.9305V26.7909C10.5483 27.1773 10.8619 27.4909 11.2483 27.4909Z" fill="#9496A1"/>
<path d="M15.7498 27.4909C16.1362 27.4909 16.4498 27.1773 16.4498 26.7909V20.9305C16.4498 20.5441 16.1362 20.2305 15.7498 20.2305C15.3634 20.2305 15.0498 20.5441 15.0498 20.9305V26.7909C15.0498 27.1773 15.3634 27.4909 15.7498 27.4909Z" fill="#9496A1"/>
<path d="M20.2503 27.4909C20.6367 27.4909 20.9503 27.1773 20.9503 26.7909V20.9305C20.9503 20.5441 20.6367 20.2305 20.2503 20.2305C19.8639 20.2305 19.5503 20.5441 19.5503 20.9305V26.7909C19.5503 27.1773 19.8639 27.4909 20.2503 27.4909Z" fill="#9496A1"/>
<path d="M24.7518 27.4909C25.1382 27.4909 25.4518 27.1773 25.4518 26.7909V20.9305C25.4518 20.5441 25.1382 20.2305 24.7518 20.2305C24.3654 20.2305 24.0518 20.5441 24.0518 20.9305V26.7909C24.0518 27.1773 24.3654 27.4909 24.7518 27.4909Z" fill="#9496A1"/>
</g>
<defs>
<clipPath id="clip0_2223_12690">
<rect width="36" height="36" fill="white"/>
</clipPath>
</defs>
</svg>
