<svg width="36" height="36" viewBox="0 0 36 36" fill="none" xmlns="http://www.w3.org/2000/svg">
<g clip-path="url(#clip0_2223_12701)">
<path d="M13.8633 12.9375C16.3361 12.9375 18.3467 14.9907 18.3467 17.5029C18.3467 20.0152 16.3361 22.0683 13.8633 22.0684C11.3835 22.0684 9.37891 20.0151 9.37891 17.5029C9.37893 14.9906 11.3905 12.9375 13.8633 12.9375ZM13.8633 14.1426C12.0563 14.1426 10.5742 15.6419 10.5742 17.4961C10.5742 19.3505 12.0497 20.8496 13.8633 20.8496C15.6769 20.8496 17.1523 19.3505 17.1523 17.4961C17.1523 15.6417 15.6769 14.1426 13.8633 14.1426Z" fill="#9496A1" stroke="#9496A1" stroke-width="0.3"/>
<path d="M24.8911 22.8594C26.7198 22.8594 28.2084 24.3806 28.2085 26.2432C28.2085 28.1062 26.7194 29.6201 24.8911 29.6201C23.0558 29.6199 21.5737 28.0987 21.5737 26.2432C21.5738 24.3879 23.0624 22.8596 24.8911 22.8594ZM24.8911 24.0723C23.722 24.0725 22.7691 25.0385 22.769 26.2363C22.769 27.4342 23.722 28.4012 24.8911 28.4014C26.0604 28.4014 27.0132 27.4344 27.0132 26.2363C27.0131 25.0384 26.0604 24.0723 24.8911 24.0723Z" fill="#9496A1" stroke="#9496A1" stroke-width="0.3"/>
<path d="M24.8911 5.49609C26.7268 5.49609 28.2084 7.01757 28.2085 8.87988C28.2085 10.7425 26.7198 12.2637 24.8911 12.2637H24.7417V12.252C22.9759 12.1719 21.5737 10.6845 21.5737 8.87305C21.5738 7.0104 23.056 5.4963 24.8911 5.49609ZM24.8911 6.71582C23.7221 6.71602 22.7691 7.68207 22.769 8.87988C22.769 10.0778 23.722 11.0447 24.8911 11.0449C26.0604 11.0449 27.0132 10.0779 27.0132 8.87988C27.0131 7.68194 26.0603 6.71582 24.8911 6.71582Z" fill="#9496A1" stroke="#9496A1" stroke-width="0.3"/>
<path d="M22.6565 10.3145C22.9395 10.1383 23.3099 10.2318 23.4807 10.5225L23.5325 10.6338C23.6124 10.8607 23.5505 11.1182 23.3723 11.2832L23.2737 11.3574L16.926 15.2197L16.9202 15.2227C16.8256 15.2751 16.7264 15.3036 16.6174 15.3037C16.4091 15.3037 16.2096 15.1933 16.1008 15.0088L16.1018 15.0078C15.9318 14.7234 16.0212 14.3499 16.3088 14.1758L22.6565 10.3135V10.3145Z" fill="#9496A1" stroke="#9496A1" stroke-width="0.3"/>
<path d="M16.1016 19.9902C16.2497 19.7439 16.5463 19.6321 16.8135 19.7266L16.9258 19.7803L23.2744 23.6426L23.2754 23.6436C23.5527 23.8167 23.6521 24.1828 23.4814 24.4756L23.4805 24.4746C23.3697 24.6701 23.1696 24.7704 22.9658 24.7705C22.8566 24.7705 22.7568 24.7421 22.6621 24.6895L22.6572 24.6865L16.3086 20.8242L16.3066 20.8232C16.0297 20.65 15.9303 20.2848 16.1006 19.9922L16.1016 19.9902Z" fill="#9496A1" stroke="#9496A1" stroke-width="0.3"/>
</g>
<defs>
<clipPath id="clip0_2223_12701">
<rect width="36" height="36" fill="white"/>
</clipPath>
</defs>
</svg>
