<svg width="36" height="36" viewBox="0 0 36 36" fill="none" xmlns="http://www.w3.org/2000/svg">
<g clip-path="url(#clip0_2223_12711)">
<g clip-path="url(#clip1_2223_12711)">
<path d="M10.4893 14.8418C11.4108 14.8418 12.1504 15.6259 12.1504 16.5732V23.4639C12.1503 24.4111 11.4107 25.1943 10.4893 25.1943H8.51074C7.58927 25.1943 6.84969 24.4111 6.84961 23.4639V16.5732C6.84961 15.6259 7.58922 14.8418 8.51074 14.8418H10.4893ZM8.50488 15.9355C8.17726 15.9357 7.89649 16.2148 7.89648 16.5791V23.4697C7.89651 23.8295 8.17301 24.1131 8.50488 24.1133H10.4834C10.8111 24.1133 11.0918 23.8341 11.0918 23.4697V16.5791C11.0918 16.2192 10.8154 15.9355 10.4834 15.9355H8.50488Z" fill="#9496A1" stroke="#9496A1" stroke-width="0.3"/>
<path d="M18.4893 9.81445C19.4165 9.81451 20.1504 10.6355 20.1504 11.6143V23.3945C20.1503 24.3732 19.4165 25.1933 18.4893 25.1934H16.5107C15.5835 25.1933 14.8497 24.3732 14.8496 23.3945V11.6143C14.8496 10.6355 15.5835 9.81451 16.5107 9.81445H18.4893ZM16.6611 10.9424H16.5107C16.1889 10.9424 15.9024 11.2307 15.9023 11.6201V23.4004C15.9023 23.7852 16.1845 24.0781 16.5107 24.0781H18.4893C18.8112 24.0781 19.0977 23.7899 19.0977 23.4004V11.6143C19.0977 11.2294 18.8155 10.9366 18.4893 10.9365H16.6611V10.9424Z" fill="#9496A1" stroke="#9496A1" stroke-width="0.3"/>
<path d="M26.4893 5.79492C27.4154 5.79497 28.1504 6.60866 28.1504 7.58105V23.4092C28.1504 24.3816 27.4154 25.1953 26.4893 25.1953H24.5107C23.5846 25.1953 22.8496 24.3816 22.8496 23.4092V7.58105C22.8496 6.60866 23.5846 5.79497 24.5107 5.79492H26.4893ZM24.6611 6.91602H24.5107C24.1877 6.91607 23.9023 7.20248 23.9023 7.58691V23.416C23.9024 23.7957 24.1834 24.0869 24.5107 24.0869H26.4893C26.8123 24.0869 27.0976 23.8004 27.0977 23.416V7.58105C27.0977 7.20127 26.8166 6.91021 26.4893 6.91016H24.6611V6.91602Z" fill="#9496A1" stroke="#9496A1" stroke-width="0.3"/>
<path d="M27.5957 26.9043C27.9353 26.9043 28.1504 27.2344 28.1504 27.5576C28.1503 27.8823 27.9278 28.21 27.5957 28.21H7.4043C7.06485 28.21 6.84974 27.8807 6.84961 27.5576C6.84961 27.2328 7.07214 26.9043 7.4043 26.9043H27.5957Z" fill="#9496A1" stroke="#9496A1" stroke-width="0.3"/>
</g>
</g>
<defs>
<clipPath id="clip0_2223_12711">
<rect width="36" height="36" fill="white"/>
</clipPath>
<clipPath id="clip1_2223_12711">
<rect width="23" height="23.1207" fill="white" transform="translate(6 4.93945)"/>
</clipPath>
</defs>
</svg>
