<svg width="36" height="36" viewBox="0 0 36 36" fill="none" xmlns="http://www.w3.org/2000/svg">
<g clip-path="url(#clip0_2223_12720)">
<g clip-path="url(#clip1_2223_12720)">
<path d="M11.9573 32.0006C11.7648 32.0006 11.584 31.9015 11.4732 31.744C11.1058 31.1956 7.85149 26.3481 7.66486 26.0215C7.23328 25.269 7 24.4115 7 23.5423C7 20.8065 9.22204 18.584 11.9573 18.584C14.6926 18.584 16.9146 20.8065 16.9146 23.5423C16.9146 24.4173 16.6872 25.2748 16.2497 26.0215C16.0631 26.3481 12.8088 31.1898 12.4414 31.744C12.3306 31.9073 12.1498 32.0006 11.9573 32.0006ZM11.9573 19.7507C9.8694 19.7507 8.16642 21.454 8.16642 23.5423C8.16642 24.2073 8.34139 24.8665 8.67382 25.4381C8.79629 25.654 10.5576 28.2848 11.9573 30.3731C13.357 28.2848 15.1183 25.654 15.2408 25.4381C15.5732 24.8665 15.7482 24.2073 15.7482 23.5423C15.7482 21.454 14.0452 19.7507 11.9573 19.7507Z" fill="#9496A1"/>
<path d="M11.9631 25.5833C10.8375 25.5833 9.92188 24.6675 9.92188 23.5417C9.92188 22.4158 10.8375 21.5 11.9631 21.5C13.0887 21.5 14.0044 22.4158 14.0044 23.5417C14.0044 24.6675 13.0887 25.5833 11.9631 25.5833ZM11.9631 22.6667C11.4791 22.6667 11.0883 23.0575 11.0883 23.5417C11.0883 24.0258 11.4791 24.4167 11.9631 24.4167C12.4472 24.4167 12.8379 24.0258 12.8379 23.5417C12.8379 23.0575 12.4472 22.6667 11.9631 22.6667Z" fill="#9496A1"/>
<path d="M31.6058 12.7493H20.5073C18.7401 12.7493 17.3287 12.1077 16.4598 11.571C16.1507 11.3785 15.9232 11.081 15.8299 10.731L14.3135 5.92435C14.2552 5.74935 14.2902 5.55102 14.401 5.40518C14.5118 5.25935 14.6868 5.16602 14.8734 5.16602H16.3315C16.5414 5.16602 16.7397 5.28268 16.8447 5.46935C16.8563 5.48685 17.7837 7.14352 19.2358 8.08268H23.3358V9.24935H19.0667C18.9617 9.24935 18.8568 9.22018 18.7634 9.16768C17.3637 8.32185 16.3898 6.94518 16.0049 6.33268H15.6724L16.9555 10.3985C16.9788 10.486 17.0255 10.5443 17.0838 10.5793C17.8245 11.0343 19.0201 11.5827 20.5189 11.5827H31.6174C32.1307 11.5827 32.6322 11.4952 33.1163 11.3202L33.6645 11.1218C33.8045 11.0752 33.8336 10.9585 33.8453 10.9002C33.8511 10.8477 33.8511 10.7252 33.7287 10.6377L33.2271 10.2935C33.0696 10.1885 32.9238 10.0602 32.7722 9.92602C32.3639 9.56435 32.014 9.24935 31.0517 9.24935H27.43V8.08268H31.0517C32.4573 8.08268 33.0871 8.64268 33.5479 9.05685C33.6587 9.15602 33.7637 9.25518 33.8803 9.33102L34.3819 9.66935C34.8309 9.97268 35.0701 10.4977 35.0001 11.0402C34.9301 11.5768 34.5743 12.0318 34.0611 12.2127L33.5129 12.411C32.9005 12.6327 32.2648 12.7435 31.6174 12.7435L31.6058 12.7493Z" fill="#9496A1"/>
<path d="M27.9547 10.2358L23.2599 5.37667C23.1316 5.2425 22.9566 5.16667 22.77 5.16667H22.525L24.5313 9.59417L23.4698 10.0725L21.0903 4.8225C21.0087 4.64167 21.0262 4.43167 21.1312 4.26833C21.2361 4.09917 21.4228 4 21.6211 4H22.77C23.2657 4 23.7498 4.20417 24.0997 4.56583L28.7946 9.43083L27.9547 10.2417V10.2358Z" fill="#9496A1"/>
<path d="M26.246 26.7507H18.081V25.584H26.246C28.4972 25.584 30.3285 23.7523 30.3285 21.5007C30.3285 19.249 28.4972 17.4173 26.246 17.4173H11.6657C9.09373 17.4173 7 15.3232 7 12.7507C7 10.1782 9.09373 8.08398 11.6657 8.08398H13.9985V9.25065H11.6657C9.73526 9.25065 8.16642 10.8198 8.16642 12.7507C8.16642 14.6815 9.73526 16.2507 11.6657 16.2507H26.246C29.1387 16.2507 31.4949 18.6073 31.4949 21.5007C31.4949 24.394 29.1387 26.7507 26.246 26.7507Z" fill="#9496A1"/>
</g>
</g>
<defs>
<clipPath id="clip0_2223_12720">
<rect width="36" height="36" fill="white"/>
</clipPath>
<clipPath id="clip1_2223_12720">
<rect width="28" height="28" fill="white" transform="translate(7 4)"/>
</clipPath>
</defs>
</svg>
