<svg width="36" height="36" viewBox="0 0 36 36" fill="none" xmlns="http://www.w3.org/2000/svg">
<g clip-path="url(#clip0_2223_12733)">
<g clip-path="url(#clip1_2223_12733)">
<path d="M25.7793 6.5791C25.9756 6.57915 26.1619 6.66625 26.2871 6.81738L30.8984 12.3887C30.9962 12.5069 31.0498 12.6552 31.0498 12.8086V26.7617C31.0496 27.1257 30.7546 27.4209 30.3906 27.4209H5.60938C5.24536 27.4209 4.9504 27.1257 4.9502 26.7617V12.8086C4.95024 12.6552 5.00384 12.5069 5.10156 12.3887L9.71289 6.81738C9.83813 6.66625 10.0244 6.57915 10.2207 6.5791H25.7793ZM6.26855 26.1016H29.7314V13.4678H21.835V22.2324C21.8348 22.4823 21.6934 22.7108 21.4697 22.8223C21.2459 22.9336 20.9779 22.9093 20.7783 22.7588L17.999 20.6631L15.2207 22.7588C15.1042 22.8465 14.9647 22.8916 14.8242 22.8916C14.7241 22.8916 14.6233 22.8686 14.5303 22.8223C14.3066 22.7108 14.1652 22.4823 14.165 22.2324V13.4678H6.26855V26.1016ZM15.4834 12.8945V20.9092L17.6025 19.3105C17.8375 19.1334 18.1625 19.1334 18.3975 19.3105L20.5166 20.9092V12.8672L19.6934 7.89746H16.7715L15.4834 12.8945ZM21.7354 12.1494H28.9883L25.4688 7.89746H21.0303L21.7354 12.1494ZM7.01172 12.1494H14.3135L15.4092 7.89746H10.5312L7.01172 12.1494Z" fill="#9496A1" stroke="#9496A1" stroke-width="0.1"/>
</g>
</g>
<defs>
<clipPath id="clip0_2223_12733">
<rect width="36" height="36" fill="white"/>
</clipPath>
<clipPath id="clip1_2223_12733">
<rect width="26" height="26" fill="white" transform="translate(5 4)"/>
</clipPath>
</defs>
</svg>
